<svg width="142" height="143" viewBox="0 0 142 143" fill="none" xmlns="http://www.w3.org/2000/svg">
<path d="M76.5849 53.5668L66.2017 59.6813V72.3142L87.6603 58.8161L76.6426 53.5668H76.5849Z" fill="#00ACD7"/>
<path d="M77.2192 66.2575V79.4673L65.9707 73.295L69.1434 71.2761H69.2588L77.2192 66.1998V66.2575Z" fill="#1C5E83"/>
<path d="M87.7184 34.4735V58.0087L76.7584 52.8748H76.643V40.8187H76.7584L87.7184 34.4158V34.4735Z" fill="#00ACD7"/>
<path d="M65.8548 35.1658V58.6433L55.4139 53.5094H55.2985V41.5687L55.4139 41.4534L65.8548 35.1658V35.1658Z" fill="#00ACD7"/>
<path d="M87.3138 33.7812L76.3538 40.1265L76.1807 40.2418L65.8552 34.2427V21.379L76.7576 27.6666L87.3138 33.7812V33.7812Z" fill="#00ACD7"/>
<path d="M56.8612 106.336H45.2222C43.792 106.336 42.4111 106.139 41.0795 105.695C39.8959 105.251 38.7616 104.61 37.8245 103.772C36.9368 102.884 36.1971 101.848 35.7039 100.714C35.1614 99.3826 34.9148 97.9523 34.9148 96.5221C34.9148 95.1412 35.1614 93.8097 35.7039 92.5274C36.1971 91.3438 36.9861 90.3081 37.8739 89.4204C38.7616 88.5326 39.8959 87.8422 41.0795 87.3983C43.644 86.412 46.5045 86.412 49.069 87.3983C50.2526 87.8422 51.3376 88.5326 52.324 89.4204C53.261 90.3574 54.0008 91.4424 54.5433 92.626C55.0365 93.859 55.3324 95.1412 55.3324 96.4728C55.3324 97.1633 55.2337 97.8044 55.0858 98.4948C54.9378 99.136 54.6912 99.7278 54.3953 100.32C54.0994 100.911 53.7049 101.454 53.2117 101.947C52.7185 102.391 52.1267 102.736 51.4856 103.032H56.8119V106.336H56.8612ZM39.3041 96.5221C39.3041 97.3112 39.452 98.1003 39.7479 98.8401C40.0438 99.5305 40.4384 100.172 40.9809 100.714C41.5234 101.257 42.1645 101.651 42.855 101.947C43.5947 102.243 44.3345 102.391 45.1236 102.391C45.9127 102.391 46.6524 102.243 47.3922 101.947C48.8224 101.306 49.9567 100.122 50.4992 98.6921C51.091 97.2619 51.091 95.6344 50.4992 94.1549C49.9074 92.7247 48.7731 91.5904 47.3922 90.9492C46.6524 90.6533 45.9127 90.5054 45.1236 90.5054C44.3345 90.5054 43.5947 90.6533 42.855 90.9492C42.1645 91.2451 41.5234 91.689 40.9809 92.2315C40.4384 92.774 40.0438 93.4151 39.7479 94.1056C39.452 94.8453 39.2548 95.6837 39.3041 96.4728V96.5221Z" fill="white"/>
<path d="M58.8824 87.201H65.1951C66.6746 87.201 68.1048 87.349 69.5351 87.7435C70.8173 88.0395 72.0503 88.6313 73.1353 89.4204C74.1709 90.2094 75.0093 91.1958 75.5518 92.3794C76.193 93.7603 76.4889 95.2892 76.4396 96.818C76.4396 98.2482 76.193 99.6291 75.5518 100.911C75.0093 102.046 74.2203 103.081 73.1846 103.87C72.1489 104.66 71.0146 105.301 69.7817 105.695C68.4501 106.139 67.0692 106.336 65.6883 106.336H58.7838V87.201H58.8824ZM63.1237 102.44H65.2937C66.1815 102.44 67.1185 102.342 68.0062 102.144C68.7953 101.947 69.5351 101.651 70.1762 101.158C70.8173 100.665 71.3105 100.073 71.6064 99.3332C72.001 98.4455 72.1489 97.5085 72.1489 96.5714C72.1489 95.733 72.001 94.8946 71.6064 94.1549C71.2612 93.4644 70.8173 92.8726 70.2255 92.3794C69.5844 91.9356 68.8939 91.5903 68.1048 91.3931C67.2664 91.1465 66.428 91.0478 65.5896 91.0478H63.1237V102.44V102.44Z" fill="white"/>
<path d="M87.0436 104.709C86.5997 105.399 86.0079 105.942 85.2188 106.238C84.4791 106.534 83.69 106.731 82.8516 106.682C82.2104 106.682 81.5693 106.583 80.9775 106.386C80.435 106.238 79.9418 105.991 79.498 105.646C79.0541 105.301 78.7089 104.857 78.4623 104.364C78.2157 103.821 78.0677 103.229 78.0677 102.588C78.0677 101.947 78.1664 101.257 78.4623 100.665C78.7582 100.172 79.1034 99.7279 79.5966 99.3826C80.0898 99.0374 80.6323 98.7908 81.2241 98.5935C81.8652 98.3963 82.457 98.2483 83.0982 98.1497C83.7886 98.0511 84.4791 98.0017 85.1695 98.0017H86.9943C86.9943 97.6565 86.945 97.3606 86.797 97.0647C86.649 96.7688 86.4518 96.5222 86.2052 96.2756C85.712 95.8317 85.0216 95.5852 84.3804 95.5852C83.7393 95.5852 83.0982 95.7331 82.5557 96.029C82.0132 96.3249 81.52 96.6702 81.0761 97.1633L78.9555 94.944C79.6952 94.2536 80.6323 93.7111 81.6186 93.3659C82.6543 93.0206 83.69 92.8234 84.775 92.8234C85.7613 92.8234 86.7477 92.922 87.6847 93.2672C88.4245 93.5138 89.0163 93.9577 89.5095 94.5495C90.0027 95.1906 90.3479 95.8811 90.4958 96.6702C90.6931 97.6072 90.7917 98.5935 90.7424 99.5799V106.287H86.945V104.66L87.0436 104.709ZM86.0572 100.616C85.7613 100.616 85.3668 100.616 84.9229 100.665C84.4791 100.665 84.0352 100.764 83.5913 100.862C83.1968 100.961 82.8516 101.158 82.5557 101.454C82.4077 101.602 82.3091 101.75 82.2104 101.947C82.1611 102.144 82.1118 102.342 82.1118 102.539C82.1118 102.736 82.1118 102.983 82.2598 103.18C82.3584 103.377 82.5063 103.525 82.7036 103.624C83.0982 103.871 83.542 103.969 83.9859 103.969C84.3804 103.969 84.7257 103.92 85.1202 103.821C85.4654 103.723 85.8106 103.575 86.1066 103.377C86.4025 103.18 86.5997 102.934 86.7477 102.638C86.945 102.292 87.0436 101.947 87.0436 101.553V100.714H86.0079L86.0572 100.616Z" fill="white"/>
<path d="M96.859 99.3331L92.4698 93.2177H97.2536L99.5715 96.7685L101.791 93.2177H106.279L102.037 99.3331L107.068 106.386H102.284L99.3742 102.046L96.3165 106.386H91.582L96.7604 99.3331H96.859Z" fill="white"/>
<path d="M109.532 87.1025H108.348V90.3575H107.855V87.1025H106.671V86.708H109.482V87.1025H109.532Z" fill="white"/>
<path d="M110.667 86.7573L111.85 89.7657L113.034 86.7573H113.675V90.4068H113.182V87.4478L111.998 90.4068H111.653L110.469 87.4478V90.4068H110.026V86.7573H110.667V86.7573Z" fill="white"/>
</svg>
