<svg width="142" height="143" viewBox="0 0 142 143" fill="none" xmlns="http://www.w3.org/2000/svg">
<path d="M47.1296 67.0813L38.1696 72.3578V83.2592L56.6871 71.6111L47.1794 67.0813H47.1296Z" fill="#00ACD7"/>
<path d="M47.677 78.0326V89.4318L37.9702 84.1055L40.7081 82.3633H40.8076L47.677 77.9828V78.0326Z" fill="#1C5E83"/>
<path d="M56.7372 50.6048V70.9144L47.2793 66.4841H47.1798V56.0804H47.2793L56.7372 50.5551V50.6048Z" fill="#00ACD7"/>
<path d="M37.8702 51.2023V71.462L28.8603 67.0318H28.7607V56.7277L28.8603 56.6281L37.8702 51.2023V51.2023Z" fill="#00ACD7"/>
<path d="M56.3881 50.0075L46.9302 55.4831L46.7809 55.5827L37.8705 50.4057V39.3052L47.2786 44.731L56.3881 50.0075V50.0075Z" fill="#00ACD7"/>
<path d="M82.3856 70.775H73.5733C72.4904 70.775 71.4449 70.6256 70.4367 70.2896C69.5405 69.9535 68.6817 69.4681 67.9722 68.8333C67.3001 68.1612 66.74 67.377 66.3666 66.5182C65.9559 65.51 65.7692 64.4272 65.7692 63.3443C65.7692 62.2988 65.9559 61.2906 66.3666 60.3197C66.74 59.4236 67.3375 58.6394 68.0096 57.9673C68.6817 57.2952 69.5405 56.7724 70.4367 56.4363C72.3784 55.6895 74.5441 55.6895 76.4858 56.4363C77.382 56.7724 78.2035 57.2952 78.9503 57.9673C79.6598 58.6767 80.2199 59.4982 80.6306 60.3944C81.004 61.3279 81.2281 62.2988 81.2281 63.3069C81.2281 63.8297 81.1534 64.3151 81.0414 64.8379C80.9293 65.3233 80.7426 65.7714 80.5186 66.2195C80.2945 66.6676 79.9958 67.0783 79.6224 67.4517C79.249 67.7878 78.8009 68.0492 78.3155 68.2732H82.3483V70.775H82.3856ZM69.0925 63.3443C69.0925 63.9417 69.2045 64.5392 69.4285 65.0993C69.6526 65.622 69.9513 66.1075 70.362 66.5182C70.7728 66.929 71.2582 67.2277 71.781 67.4517C72.3411 67.6758 72.9012 67.7878 73.4986 67.7878C74.0961 67.7878 74.6562 67.6758 75.2163 67.4517C76.2991 66.9663 77.158 66.0701 77.5687 64.9873C78.0168 63.9044 78.0168 62.6722 77.5687 61.552C77.1206 60.4691 76.2618 59.6103 75.2163 59.1248C74.6562 58.9008 74.0961 58.7888 73.4986 58.7888C72.9012 58.7888 72.3411 58.9008 71.781 59.1248C71.2582 59.3489 70.7728 59.6849 70.362 60.0957C69.9513 60.5064 69.6526 60.9918 69.4285 61.5146C69.2045 62.0747 69.0551 62.7095 69.0925 63.3069V63.3443Z" fill="white"/>
<path d="M83.9159 56.287H88.6955C89.8157 56.287 90.8985 56.399 91.9814 56.6977C92.9523 56.9218 93.8858 57.3699 94.7073 57.9673C95.4914 58.5647 96.1262 59.3116 96.5369 60.2077C97.0223 61.2533 97.2464 62.4108 97.2091 63.5684C97.2091 64.6512 97.0223 65.6968 96.5369 66.6676C96.1262 67.5264 95.5287 68.3106 94.7446 68.908C93.9604 69.5055 93.1016 69.9909 92.1681 70.2896C91.1599 70.6257 90.1144 70.775 89.0689 70.775H83.8412V56.287H83.9159ZM87.1272 67.8251H88.7701C89.4423 67.8251 90.1517 67.7505 90.8239 67.6011C91.4213 67.4517 91.9814 67.2277 92.4668 66.8543C92.9523 66.4809 93.3257 66.0328 93.5497 65.4727C93.8484 64.8006 93.9604 64.0911 93.9604 63.3817C93.9604 62.7469 93.8484 62.1121 93.5497 61.552C93.2883 61.0292 92.9523 60.5811 92.5042 60.2077C92.0187 59.8717 91.496 59.6103 90.8985 59.4609C90.2638 59.2742 89.629 59.1995 88.9942 59.1995H87.1272V67.8251V67.8251Z" fill="white"/>
<path d="M105.238 69.5427C104.902 70.0655 104.454 70.4762 103.856 70.7003C103.296 70.9243 102.699 71.0737 102.064 71.0363C101.578 71.0363 101.093 70.9617 100.645 70.8123C100.234 70.7003 99.8608 70.5136 99.5247 70.2522C99.1886 69.9908 98.9273 69.6547 98.7406 69.2813C98.5539 68.8706 98.4418 68.4225 98.4418 67.9371C98.4418 67.4517 98.5165 66.9289 98.7406 66.4808C98.9646 66.1074 99.226 65.7713 99.5994 65.51C99.9728 65.2486 100.384 65.0619 100.832 64.9125C101.317 64.7632 101.765 64.6511 102.251 64.5765C102.773 64.5018 103.296 64.4644 103.819 64.4644H105.2C105.2 64.2031 105.163 63.979 105.051 63.755C104.939 63.5309 104.79 63.3442 104.603 63.1575C104.23 62.8215 103.707 62.6348 103.221 62.6348C102.736 62.6348 102.251 62.7468 101.84 62.9708C101.429 63.1949 101.056 63.4562 100.72 63.8296L99.114 62.1493C99.6741 61.6266 100.384 61.2158 101.13 60.9544C101.914 60.6931 102.699 60.5437 103.52 60.5437C104.267 60.5437 105.014 60.6184 105.723 60.8798C106.283 61.0665 106.731 61.4025 107.105 61.8506C107.478 62.336 107.74 62.8588 107.852 63.4562C108.001 64.1657 108.076 64.9125 108.038 65.6593V70.7376H105.163V69.5054L105.238 69.5427ZM104.491 66.4435C104.267 66.4435 103.968 66.4435 103.632 66.4808C103.296 66.4808 102.96 66.5555 102.624 66.6302C102.325 66.7049 102.064 66.8542 101.84 67.0783C101.728 67.1903 101.653 67.3023 101.578 67.4517C101.541 67.601 101.504 67.7504 101.504 67.8997C101.504 68.0491 101.504 68.2358 101.616 68.3852C101.69 68.5345 101.802 68.6465 101.952 68.7212C102.251 68.9079 102.587 68.9826 102.923 68.9826C103.221 68.9826 103.483 68.9453 103.781 68.8706C104.043 68.7959 104.304 68.6839 104.528 68.5345C104.752 68.3852 104.902 68.1985 105.014 67.9744C105.163 67.713 105.238 67.4517 105.238 67.1529V66.5182H104.454L104.491 66.4435Z" fill="white"/>
<path d="M112.669 65.4725L109.346 60.8423H112.968L114.723 63.5308L116.403 60.8423H119.801L116.59 65.4725L120.399 70.8122H116.777L114.574 67.5262L112.259 70.8122H108.674L112.595 65.4725H112.669Z" fill="white"/>
<path d="M122.264 56.2124H121.368V58.6769H120.995V56.2124H120.099V55.9137H122.227V56.2124H122.264Z" fill="white"/>
<path d="M123.124 55.9509L124.02 58.2287L124.916 55.9509H125.401V58.7141H125.028V56.4737L124.132 58.7141H123.871L122.974 56.4737V58.7141H122.638V55.9509H123.124V55.9509Z" fill="white"/>
</svg>
