<svg width="175" height="44" viewBox="0 0 175 44" fill="none" xmlns="http://www.w3.org/2000/svg">
<path d="M41.6015 16.3715L27.5195 2.29946C26.0358 0.825792 24.0351 0 21.9404 0C19.8457 0 17.845 0.822435 16.3613 2.29946L2.29945 16.3715C0.825787 17.8552 0 19.8559 0 21.9506C0 24.0453 0.82243 26.046 2.29945 27.5298L16.3647 41.6287C17.8484 43.0956 19.8491 43.9281 21.9337 43.9281C24.0183 43.9281 26.0291 43.0956 27.5027 41.6287L41.6015 27.5398C43.0752 26.0561 43.9077 24.0554 43.9077 21.9607C43.9077 19.866 43.0752 17.8586 41.6015 16.3749V16.3715ZM14.1324 23.6727C13.8202 24.3072 13.3334 24.851 12.7326 25.2202C12.1317 25.5996 11.4301 25.7976 10.7218 25.7976C10.0135 25.7976 9.30521 25.5996 8.70433 25.2202C8.10345 24.8409 7.61671 24.3072 7.30452 23.6626C6.99233 23.0215 6.86813 22.3031 6.94198 21.5948C7.01583 20.8865 7.29781 20.2185 7.7342 19.6579C8.33507 18.8925 9.20114 18.3823 10.1646 18.2413C11.128 18.0936 12.1082 18.3252 12.9004 18.8824C13.2126 19.104 13.4845 19.3692 13.7228 19.6646C14.1592 20.2252 14.4244 20.8999 14.4983 21.6082C14.5721 22.3165 14.4479 23.0248 14.1357 23.6694L14.1324 23.6727ZM26.0291 34.6564C25.5591 35.4721 24.8508 36.1234 23.9948 36.5363C23.1455 36.9492 22.1989 37.0969 21.259 36.9559C20.3291 36.8149 19.453 36.4054 18.7615 35.7608C18.0599 35.1264 17.5765 34.2939 17.3516 33.3808C17.1368 32.4577 17.1938 31.4942 17.5329 30.6114C17.8618 29.7285 18.456 28.9632 19.2314 28.4193C20.8394 26.6469 21.7189 24.3239 21.6786 21.9271C21.645 19.5303 20.7051 17.2309 19.0502 15.5088C18.3016 14.9314 17.7477 14.1425 17.459 13.2429C17.1636 12.3533 17.1468 11.3899 17.4019 10.4835C17.6671 9.57718 18.1841 8.76817 18.9092 8.16729C19.6343 7.56641 20.5171 7.18708 21.4537 7.09644C22.3936 6.99909 23.3335 7.18708 24.166 7.63354C24.9884 8.08001 25.6665 8.76146 26.1029 9.59396C26.5393 10.4332 26.7206 11.3731 26.6132 12.313C26.5057 13.2429 26.1264 14.1325 25.5088 14.8441C25.3107 15.0825 25.0791 15.304 24.834 15.4954C23.1858 17.2241 22.2459 19.5169 22.2123 21.907C22.1888 24.2971 23.0616 26.6133 24.6662 28.3824C25.0455 28.661 25.3845 29.0001 25.6632 29.3727C26.2473 30.1213 26.593 31.0209 26.6534 31.9608C26.7206 32.9075 26.5057 33.8474 26.0257 34.6631L26.0291 34.6564ZM36.3212 23.6727C36.009 24.3072 35.5223 24.851 34.9214 25.2202C34.3272 25.5895 33.6357 25.7875 32.9341 25.7976C32.2158 25.8043 31.5175 25.6096 30.9066 25.2303C30.3057 24.861 29.8122 24.3172 29.4967 23.6727C29.1845 23.0315 29.0502 22.3132 29.1274 21.6049C29.2013 20.8966 29.4833 20.2218 29.9197 19.6612C30.2755 19.2081 30.7287 18.8388 31.2456 18.5904C31.7659 18.3353 32.3332 18.2044 32.9106 18.2044C33.6928 18.2044 34.4514 18.4427 35.0926 18.8892C35.3981 19.1107 35.67 19.3759 35.9083 19.6713C36.3447 20.2319 36.6166 20.9066 36.6904 21.6149C36.7576 22.3232 36.6334 23.0315 36.3212 23.6761V23.6727Z" fill="url(#paint0_linear_1019_10425)"/>
<path d="M70.7621 9.60736H63.9981L54.1423 33.6426H60.2887L62.521 27.8419H71.89L74.0888 33.6426H80.4735L70.7588 9.60736H70.7621ZM64.3002 23.1356L67.2576 15.4383L70.1411 23.1356H64.3002Z" fill="white"/>
<path d="M88.1405 9.60736V33.6426H82.2324V10.9098L88.1405 9.60736Z" fill="white"/>
<path d="M100.91 29.178C98.4062 29.178 96.5532 27.2243 96.5532 24.579C96.5532 21.9338 98.3726 19.9398 100.779 19.9398C102.387 19.9398 103.663 20.5978 104.932 22.0412L108.326 18.4997C106.439 16.3748 103.619 15.1395 100.639 15.1395C95.2071 15.1395 91.0245 19.2584 91.0245 24.5824C91.0245 29.9064 95.2105 33.9917 100.639 33.9917C103.522 33.9917 106.298 32.7564 108.155 30.6617L104.858 27.2243C103.663 28.5603 102.428 29.178 100.91 29.178Z" fill="white"/>
<path d="M120.792 15.1362C118.939 15.1362 117.258 15.6867 115.915 16.7172V8.40225L110.353 9.60401V33.6393H115.915V21.3464C116.674 20.4232 117.768 19.9029 119.178 19.9029C121.172 19.9029 122.474 21.2121 122.474 23.1994V33.6393H128.037V22.4508C128.037 18.1573 125.052 15.1328 120.792 15.1328V15.1362Z" fill="white"/>
<path d="M140.37 15.1362C134.842 15.1362 130.515 19.2886 130.515 24.5791C130.515 27.1169 131.505 29.3761 133.16 31.0545C134.939 32.8672 137.494 33.9884 140.37 33.9884C145.899 33.9884 150.226 29.8695 150.226 24.5791C150.226 19.2886 145.899 15.1362 140.37 15.1362ZM140.37 29.178C137.866 29.178 135.936 27.1504 135.936 24.5791C135.936 22.0077 137.896 19.9399 140.37 19.9399C142.844 19.9399 144.795 21.9674 144.795 24.5791C144.795 27.1907 142.875 29.178 140.37 29.178Z" fill="white"/>
<path d="M163.17 15.069C161.217 15.069 159.602 15.8512 158.4 17.2946V15.4819H152.838V33.6426H158.4V22.1084C159.33 20.6649 160.871 19.8089 162.626 19.8089C163.583 19.8089 164.547 20.0137 165.262 20.3528V15.5155C164.785 15.2033 164.231 15.1026 163.17 15.069Z" fill="white"/>
<path d="M170.267 2.22559C167.655 2.22559 165.534 4.34378 165.534 6.95879C165.534 9.57379 167.662 11.692 170.267 11.692C172.872 11.692 175 9.57379 175 6.95879C175 4.34378 172.882 2.22559 170.267 2.22559ZM170.267 10.6547C168.229 10.6547 166.571 8.99977 166.571 6.95879C166.571 4.9178 168.226 3.26286 170.267 3.26286C172.308 3.26286 173.963 4.9178 173.963 6.95879C173.963 8.99977 172.308 10.6547 170.267 10.6547Z" fill="white"/>
<path d="M171.965 9.16092H171.962L171.965 9.16818V9.16092Z" fill="white"/>
<path d="M171.039 7.37838C171.267 7.26088 171.445 7.08968 171.553 6.8782C171.663 6.67343 171.714 6.43509 171.714 6.17326C171.714 5.91142 171.663 5.66637 171.553 5.45824C171.435 5.2434 171.264 5.07556 171.039 4.95135C170.817 4.82715 170.532 4.76672 170.186 4.76672H168.662V9.16088H169.421V7.54958H170.223L171.093 9.16088H171.965L171.005 7.40187C171.005 7.40187 171.029 7.37838 171.042 7.37838H171.039ZM169.418 5.47167H170.17C170.368 5.47167 170.529 5.50188 170.65 5.55895C170.76 5.6093 170.834 5.68987 170.885 5.78721C170.935 5.89128 170.965 6.01548 170.965 6.16319C170.965 6.31089 170.935 6.42838 170.885 6.53244C170.834 6.62979 170.76 6.70029 170.65 6.754C170.532 6.80435 170.371 6.83456 170.17 6.83456H169.418V5.47167Z" fill="white"/>
<defs>
<linearGradient id="paint0_linear_1019_10425" x1="21.9538" y1="0" x2="21.9538" y2="43.9281" gradientUnits="userSpaceOnUse">
<stop stop-color="#8685E4"/>
<stop offset="0.684876" stop-color="#4699E6"/>
<stop offset="1" stop-color="#28E7E7"/>
</linearGradient>
</defs>
</svg>
