<svg width="342" height="343" viewBox="0 0 342 343" fill="none" xmlns="http://www.w3.org/2000/svg">
<path d="M106.291 163.262L86.8983 143.883C84.855 141.854 82.0998 140.716 79.2151 140.716C76.3304 140.716 73.5752 141.849 71.5319 143.883L52.1667 163.262C50.1372 165.306 49 168.061 49 170.946C49 173.83 50.1326 176.585 52.1667 178.629L71.5365 198.045C73.5798 200.065 76.335 201.212 79.2058 201.212C82.0766 201.212 84.8457 200.065 86.8752 198.045L106.291 178.643C108.321 176.599 109.467 173.844 109.467 170.959C109.467 168.075 108.321 165.31 106.291 163.267V163.262ZM68.4623 173.317C68.0324 174.191 67.362 174.94 66.5345 175.448C65.7071 175.971 64.7409 176.243 63.7655 176.243C62.79 176.243 61.8146 175.971 60.9871 175.448C60.1596 174.926 59.4893 174.191 59.0594 173.303C58.6294 172.42 58.4584 171.431 58.5601 170.456C58.6618 169.48 59.0501 168.56 59.6511 167.788C60.4786 166.734 61.6713 166.031 62.9981 165.837C64.3248 165.634 65.6747 165.953 66.7657 166.72C67.1956 167.025 67.5701 167.391 67.8983 167.797C68.4993 168.569 68.8645 169.499 68.9662 170.474C69.0679 171.449 68.8968 172.425 68.4669 173.312L68.4623 173.317ZM84.8457 188.443C84.1985 189.567 83.2231 190.463 82.0443 191.032C80.8747 191.601 79.571 191.804 78.2766 191.61C76.9961 191.416 75.7895 190.852 74.8372 189.964C73.871 189.09 73.2054 187.944 72.8956 186.687C72.5998 185.415 72.6783 184.088 73.1453 182.873C73.5983 181.657 74.4165 180.603 75.4844 179.854C77.6988 177.413 78.91 174.214 78.8545 170.913C78.8083 167.612 77.5139 164.446 75.2348 162.074C74.2039 161.279 73.4411 160.193 73.0436 158.954C72.6367 157.729 72.6136 156.402 72.965 155.154C73.3302 153.906 74.0421 152.791 75.0406 151.964C76.0392 151.136 77.255 150.614 78.5448 150.489C79.8392 150.355 81.1336 150.614 82.28 151.229C83.4127 151.844 84.3465 152.782 84.9474 153.929C85.5484 155.084 85.7981 156.379 85.6501 157.673C85.5022 158.954 84.9798 160.179 84.1292 161.159C83.8564 161.487 83.5375 161.792 83.2 162.056C80.9302 164.436 79.6358 167.594 79.5895 170.885C79.5572 174.177 80.7591 177.367 82.9689 179.803C83.4912 180.187 83.9581 180.654 84.3418 181.167C85.1462 182.198 85.6224 183.437 85.7056 184.731C85.7981 186.035 85.5022 187.329 84.8411 188.452L84.8457 188.443ZM99.0195 173.317C98.5895 174.191 97.9192 174.94 97.0917 175.448C96.2735 175.957 95.3212 176.23 94.355 176.243C93.3657 176.253 92.4041 175.985 91.5628 175.462C90.7353 174.954 90.0557 174.205 89.6212 173.317C89.1912 172.434 89.0063 171.445 89.1126 170.469C89.2144 169.494 89.6027 168.565 90.2036 167.793C90.6937 167.169 91.3178 166.66 92.0297 166.318C92.7462 165.967 93.5275 165.786 94.3226 165.786C95.3998 165.786 96.4445 166.115 97.3275 166.729C97.7482 167.035 98.1226 167.4 98.4509 167.807C99.0518 168.579 99.4263 169.508 99.528 170.483C99.6204 171.459 99.4494 172.434 99.0195 173.322V173.317Z" fill="url(#paint0_linear_1043_10497)"/>
<path d="M146.45 153.947H137.134L123.562 187.047H132.026L135.1 179.059H148.003L151.031 187.047H159.824L146.445 153.947H146.45ZM137.551 172.577L141.623 161.977L145.594 172.577H137.551Z" fill="white"/>
<path d="M170.382 153.947V187.047H162.246V155.741L170.382 153.947Z" fill="white"/>
<path d="M187.968 180.899C184.519 180.899 181.968 178.208 181.968 174.565C181.968 170.922 184.473 168.176 187.788 168.176C190.002 168.176 191.759 169.083 193.506 171.07L198.18 166.193C195.582 163.267 191.699 161.566 187.594 161.566C180.114 161.566 174.354 167.238 174.354 174.57C174.354 181.902 180.118 187.528 187.594 187.528C191.565 187.528 195.388 185.827 197.944 182.942L193.405 178.208C191.759 180.048 190.058 180.899 187.968 180.899Z" fill="white"/>
<path d="M215.348 161.561C212.797 161.561 210.481 162.319 208.631 163.738V152.288L200.971 153.943V187.043H208.631V170.113C209.676 168.842 211.183 168.126 213.125 168.126C215.871 168.126 217.665 169.929 217.665 172.665V187.043H225.325V171.634C225.325 165.722 221.215 161.556 215.348 161.556V161.561Z" fill="white"/>
<path d="M242.31 161.561C234.696 161.561 228.737 167.28 228.737 174.565C228.737 178.06 230.101 181.171 232.38 183.483C234.83 185.979 238.348 187.523 242.31 187.523C249.924 187.523 255.883 181.851 255.883 174.565C255.883 167.28 249.924 161.561 242.31 161.561ZM242.31 180.899C238.862 180.899 236.203 178.106 236.203 174.565C236.203 171.024 238.903 168.177 242.31 168.177C245.717 168.177 248.403 170.969 248.403 174.565C248.403 178.162 245.759 180.899 242.31 180.899Z" fill="white"/>
<path d="M273.709 161.469C271.018 161.469 268.795 162.546 267.14 164.534V162.037H259.48V187.047H267.14V171.163C268.42 169.175 270.542 167.996 272.96 167.996C274.277 167.996 275.604 168.278 276.589 168.745V162.083C275.932 161.654 275.17 161.515 273.709 161.469Z" fill="white"/>
<path d="M283.482 143.781C279.885 143.781 276.964 146.698 276.964 150.3C276.964 153.901 279.894 156.818 283.482 156.818C287.069 156.818 290 153.901 290 150.3C290 146.698 287.083 143.781 283.482 143.781ZM283.482 155.389C280.676 155.389 278.392 153.11 278.392 150.3C278.392 147.489 280.671 145.21 283.482 145.21C286.292 145.21 288.572 147.489 288.572 150.3C288.572 153.11 286.292 155.389 283.482 155.389Z" fill="white"/>
<path d="M285.82 153.332H285.816L285.82 153.342V153.332Z" fill="white"/>
<path d="M284.545 150.878C284.859 150.716 285.104 150.48 285.252 150.189C285.405 149.907 285.474 149.578 285.474 149.218C285.474 148.857 285.405 148.52 285.252 148.233C285.091 147.937 284.855 147.706 284.545 147.535C284.24 147.364 283.847 147.281 283.371 147.281H281.272V153.332H282.317V151.113H283.422L284.619 153.332H285.821L284.499 150.91C284.499 150.91 284.531 150.878 284.55 150.878H284.545ZM282.312 148.252H283.348C283.621 148.252 283.842 148.293 284.009 148.372C284.161 148.441 284.263 148.552 284.332 148.686C284.402 148.83 284.443 149.001 284.443 149.204C284.443 149.407 284.402 149.569 284.332 149.713C284.263 149.847 284.161 149.944 284.009 150.018C283.847 150.087 283.625 150.129 283.348 150.129H282.312V148.252Z" fill="white"/>
<defs>
<linearGradient id="paint0_linear_1043_10497" x1="79.2336" y1="140.716" x2="79.2336" y2="201.212" gradientUnits="userSpaceOnUse">
<stop stop-color="#8685E4"/>
<stop offset="0.684876" stop-color="#4699E6"/>
<stop offset="1" stop-color="#28E7E7"/>
</linearGradient>
</defs>
</svg>
