<svg width="85" height="94" viewBox="0 0 85 94" fill="none" xmlns="http://www.w3.org/2000/svg">
<path d="M71.8119 24.9274L50.5816 3.50119C48.3447 1.25736 45.3284 0 42.1705 0C39.0125 0 35.9962 1.25225 33.7594 3.50119L12.5595 24.9274C10.3377 27.1866 9.09277 30.2329 9.09277 33.4223C9.09277 36.6117 10.3327 39.658 12.5595 41.9171L33.7644 63.3843C36.0013 65.6179 39.0176 66.8854 42.1604 66.8854C45.3031 66.8854 48.3346 65.6179 50.5563 63.3843L71.8119 41.9325C74.0336 39.6733 75.2887 36.627 75.2887 33.4376C75.2887 30.2482 74.0336 27.1917 71.8119 24.9325V24.9274ZM30.3989 36.0443C29.9283 37.0104 29.1945 37.8384 28.2886 38.4006C27.3827 38.9782 26.325 39.2797 25.2571 39.2797C24.1893 39.2797 23.1214 38.9782 22.2156 38.4006C21.3097 37.823 20.5758 37.0104 20.1052 36.029C19.6345 35.0528 19.4473 33.959 19.5586 32.8805C19.6699 31.802 20.0951 30.7849 20.753 29.9313C21.6589 28.766 22.9646 27.989 24.417 27.7744C25.8695 27.5495 27.3473 27.9022 28.5416 28.7506C29.0123 29.088 29.4222 29.4917 29.7815 29.9415C30.4394 30.7951 30.8392 31.8225 30.9506 32.9009C31.0619 33.9794 30.8747 35.0579 30.404 36.0392L30.3989 36.0443ZM48.3346 52.7682C47.6261 54.0103 46.5582 55.0018 45.2677 55.6305C43.9873 56.2592 42.5602 56.4841 41.1431 56.2694C39.7413 56.0548 38.4204 55.4312 37.3779 54.4498C36.3201 53.4838 35.5914 52.2162 35.2523 50.826C34.9284 49.4204 35.0144 47.9535 35.5256 46.6092C36.0215 45.265 36.9173 44.0996 38.0864 43.2716C40.5105 40.5729 41.8365 37.0359 41.7757 33.3865C41.7251 29.7371 40.3081 26.2359 37.8131 23.6138C36.6845 22.7347 35.8495 21.5336 35.4142 20.1638C34.9689 18.8093 34.9436 17.3424 35.3282 15.9623C35.728 14.5823 36.5074 13.3505 37.6005 12.4356C38.6937 11.5207 40.0247 10.9431 41.4367 10.8051C42.8537 10.6569 44.2707 10.9431 45.5258 11.6229C46.7657 12.3027 47.788 13.3403 48.4459 14.6079C49.1038 15.8857 49.3771 17.3168 49.2152 18.748C49.0532 20.1638 48.4814 21.5182 47.5502 22.6018C47.2516 22.9647 46.9024 23.3021 46.5329 23.5934C44.0481 26.2257 42.631 29.7166 42.5804 33.3558C42.545 36.995 43.8608 40.5218 46.2799 43.2154C46.8518 43.6396 47.3629 44.1558 47.783 44.7232C48.6635 45.863 49.1848 47.2328 49.2759 48.6639C49.3771 50.1053 49.0532 51.5364 48.3295 52.7785L48.3346 52.7682ZM63.8512 36.0443C63.3805 37.0104 62.6467 37.8384 61.7408 38.4006C60.845 38.9628 59.8025 39.2644 58.7448 39.2797C57.6617 39.29 56.6091 38.9935 55.688 38.4159C54.7821 37.8537 54.0382 37.0257 53.5625 36.0443C53.0918 35.0681 52.8894 33.9743 53.0058 32.8958C53.1171 31.8174 53.5422 30.79 54.2001 29.9364C54.7366 29.2464 55.4198 28.6842 56.1992 28.3059C56.9836 27.9175 57.8389 27.7182 58.7093 27.7182C59.8885 27.7182 61.0323 28.081 61.9989 28.7608C62.4594 29.0982 62.8694 29.502 63.2287 29.9518C63.8866 30.8053 64.2965 31.8327 64.4079 32.9112C64.5091 33.9896 64.3218 35.0681 63.8512 36.0494V36.0443Z" fill="url(#paint0_linear_1019_10410)"/>
<path d="M12.6208 75.3901H7.48426L0 93.7336H4.66747L6.36264 89.3065H13.4773L15.147 93.7336H19.9954L12.6182 75.3901H12.6208ZM7.71368 85.7147L9.95947 79.8402L12.1492 85.7147H7.71368Z" fill="#2C3F51"/>
<path d="M25.8165 75.3901V93.7336H21.33V76.3841L25.8165 75.3901Z" fill="#2C3F51"/>
<path d="M35.5144 90.3262C33.6127 90.3262 32.2056 88.8351 32.2056 86.8163C32.2056 84.7975 33.5873 83.2757 35.415 83.2757C36.636 83.2757 37.6047 83.7778 38.5683 84.8795L41.1454 82.1766C39.7128 80.5549 37.5715 79.6121 35.3079 79.6121C31.1834 79.6121 28.0072 82.7556 28.0072 86.8189C28.0072 90.8821 31.186 94 35.3079 94C37.4976 94 39.6058 93.0572 41.0154 91.4585L38.5122 88.8351C37.6047 89.8548 36.6666 90.3262 35.5144 90.3262Z" fill="#2C3F51"/>
<path d="M50.612 79.6097C49.2049 79.6097 47.9277 80.0298 46.9081 80.8163V74.4704L42.6842 75.3876V93.7311H46.9081V84.3492C47.4842 83.6447 48.3152 83.2476 49.3858 83.2476C50.9 83.2476 51.8891 84.2468 51.8891 85.7634V93.7311H56.113V85.1921C56.113 81.9154 53.8468 79.6071 50.612 79.6071V79.6097Z" fill="#2C3F51"/>
<path d="M65.4784 79.6096C61.28 79.6096 57.9941 82.7787 57.9941 86.8164C57.9941 88.7532 58.7461 90.4774 60.0029 91.7583C61.3539 93.1418 63.2938 93.9975 65.4784 93.9975C69.6768 93.9975 72.9627 90.854 72.9627 86.8164C72.9627 82.7787 69.6768 79.6096 65.4784 79.6096ZM65.4784 90.3262C63.5767 90.3262 62.111 88.7788 62.111 86.8164C62.111 84.8539 63.5997 83.2758 65.4784 83.2758C67.3571 83.2758 68.8382 84.8232 68.8382 86.8164C68.8382 88.8096 67.3801 90.3262 65.4784 90.3262Z" fill="#2C3F51"/>
<path d="M82.7934 79.5584C81.3098 79.5584 80.0836 80.1553 79.1711 81.257V79.8735H74.9471V93.7336H79.1711V84.9308C79.8772 83.8292 81.0472 83.1759 82.3804 83.1759C83.1069 83.1759 83.8385 83.3322 84.3815 83.5909V79.8991C84.0195 79.6609 83.5989 79.584 82.7934 79.5584Z" fill="#2C3F51"/>
<path d="M78.3765 0C75.047 0 72.3423 2.70042 72.3423 6.03421C72.3423 9.36801 75.0555 12.0684 78.3765 12.0684C81.6974 12.0684 84.4107 9.36801 84.4107 6.03421C84.4107 2.70042 81.7103 0 78.3765 0ZM78.3765 10.746C75.7788 10.746 73.6646 8.6362 73.6646 6.03421C73.6646 3.43222 75.7745 1.32239 78.3765 1.32239C80.9785 1.32239 83.0883 3.43222 83.0883 6.03421C83.0883 8.6362 80.9785 10.746 78.3765 10.746Z" fill="#2C3F51"/>
<path d="M80.5413 8.84161H80.5369L80.5413 8.85043V8.84161Z" fill="#2C3F51"/>
<path d="M79.361 6.56914C79.652 6.41935 79.8788 6.20109 80.0158 5.93148C80.157 5.67043 80.2212 5.36658 80.2212 5.03277C80.2212 4.69896 80.157 4.38655 80.0158 4.12122C79.866 3.84732 79.6477 3.63335 79.361 3.475C79.0785 3.31666 78.7148 3.23962 78.274 3.23962H76.3311V8.8416H77.2982V6.7874H78.3211L79.4295 8.8416H80.5422L79.3182 6.5991C79.3182 6.5991 79.3482 6.56914 79.3653 6.56914H79.361ZM77.294 4.13834H78.2526C78.5051 4.13834 78.7105 4.17685 78.8646 4.24961C79.0058 4.3138 79.0999 4.41651 79.1641 4.54062C79.2283 4.67328 79.2668 4.83163 79.2668 5.01993C79.2668 5.20823 79.2283 5.35802 79.1641 5.49068C79.0999 5.61479 79.0058 5.70466 78.8646 5.77314C78.7148 5.83733 78.5094 5.87585 78.2526 5.87585H77.294V4.13834Z" fill="#2C3F51"/>
<defs>
<linearGradient id="paint0_linear_1019_10410" x1="42.1907" y1="0" x2="42.1907" y2="66.8854" gradientUnits="userSpaceOnUse">
<stop stop-color="#8685E4"/>
<stop offset="0.684876" stop-color="#4699E6"/>
<stop offset="1" stop-color="#28E7E7"/>
</linearGradient>
</defs>
</svg>
