<svg width="342" height="343" viewBox="0 0 342 343" fill="none" xmlns="http://www.w3.org/2000/svg">
<path d="M224.59 131.452L186.309 92.8168C182.276 88.7708 176.837 86.5036 171.142 86.5036C165.448 86.5036 160.009 88.7616 155.976 92.8168L117.749 131.452C113.743 135.525 111.498 141.018 111.498 146.769C111.498 152.52 113.734 158.013 117.749 162.087L155.985 200.795C160.019 204.823 165.457 207.108 171.124 207.108C176.791 207.108 182.257 204.823 186.263 200.795L224.59 162.114C228.597 158.041 230.86 152.548 230.86 146.797C230.86 141.046 228.597 135.534 224.59 131.461V131.452ZM149.917 151.497C149.068 153.239 147.745 154.732 146.111 155.746C144.478 156.787 142.571 157.331 140.645 157.331C138.72 157.331 136.794 156.787 135.161 155.746C133.527 154.704 132.204 153.239 131.355 151.469C130.507 149.709 130.169 147.737 130.37 145.792C130.571 143.848 131.337 142.013 132.523 140.474C134.157 138.373 136.511 136.972 139.13 136.585C141.749 136.18 144.414 136.815 146.568 138.345C147.416 138.954 148.155 139.682 148.803 140.493C149.99 142.032 150.711 143.884 150.911 145.829C151.112 147.774 150.774 149.718 149.926 151.488L149.917 151.497ZM182.257 181.653C180.98 183.892 179.054 185.68 176.727 186.814C174.419 187.948 171.845 188.353 169.29 187.966C166.762 187.579 164.38 186.455 162.501 184.685C160.593 182.943 159.279 180.657 158.668 178.151C158.084 175.616 158.239 172.971 159.161 170.547C160.055 168.123 161.67 166.022 163.778 164.529C168.149 159.663 170.54 153.285 170.431 146.705C170.339 140.124 167.784 133.811 163.285 129.083C161.25 127.498 159.745 125.332 158.96 122.862C158.157 120.42 158.111 117.775 158.805 115.286C159.526 112.798 160.931 110.577 162.902 108.927C164.873 107.277 167.273 106.236 169.819 105.987C172.374 105.72 174.93 106.236 177.193 107.462C179.428 108.687 181.272 110.558 182.458 112.844C183.644 115.148 184.137 117.728 183.845 120.309C183.553 122.862 182.522 125.304 180.843 127.258C180.304 127.913 179.675 128.521 179.009 129.046C174.528 133.793 171.973 140.087 171.882 146.649C171.818 153.211 174.19 159.571 178.552 164.428C179.584 165.193 180.505 166.123 181.263 167.146C182.85 169.202 183.79 171.672 183.955 174.252C184.137 176.851 183.553 179.432 182.248 181.671L182.257 181.653ZM210.236 151.497C209.387 153.239 208.064 154.732 206.431 155.746C204.816 156.76 202.936 157.303 201.028 157.331C199.076 157.349 197.177 156.815 195.517 155.773C193.883 154.76 192.542 153.267 191.684 151.497C190.835 149.737 190.47 147.764 190.68 145.82C190.881 143.875 191.647 142.023 192.834 140.484C193.801 139.239 195.033 138.226 196.438 137.544C197.853 136.843 199.395 136.484 200.965 136.484C203.091 136.484 205.153 137.138 206.896 138.364C207.727 138.972 208.466 139.7 209.114 140.511C210.3 142.05 211.039 143.903 211.24 145.847C211.422 147.792 211.085 149.737 210.236 151.506V151.497Z" fill="url(#paint0_linear_1043_10497)"/>
<path d="M117.86 222.443H108.598L95.1027 255.52H103.519L106.575 247.537H119.404L122.415 255.52H131.157L117.855 222.443H117.86ZM109.012 241.06L113.061 230.468L117.009 241.06H109.012Z" fill="white"/>
<path d="M141.654 222.443V255.52H133.564V224.236L141.654 222.443Z" fill="white"/>
<path d="M159.141 249.376C155.712 249.376 153.174 246.687 153.174 243.047C153.174 239.406 155.666 236.662 158.961 236.662C161.163 236.662 162.91 237.568 164.647 239.554L169.294 234.681C166.711 231.756 162.85 230.056 158.768 230.056C151.331 230.056 145.604 235.725 145.604 243.051C145.604 250.378 151.336 256 158.768 256C162.717 256 166.518 254.3 169.06 251.417L164.546 246.687C162.91 248.526 161.218 249.376 159.141 249.376Z" fill="white"/>
<path d="M186.364 230.052C183.827 230.052 181.524 230.81 179.685 232.228V220.785L172.069 222.439V255.515H179.685V238.598C180.724 237.328 182.222 236.612 184.153 236.612C186.883 236.612 188.667 238.413 188.667 241.148V255.515H196.283V240.118C196.283 234.21 192.197 230.047 186.364 230.047V230.052Z" fill="white"/>
<path d="M213.17 230.052C205.6 230.052 199.675 235.766 199.675 243.047C199.675 246.539 201.031 249.648 203.297 251.958C205.733 254.452 209.231 255.995 213.17 255.995C220.741 255.995 226.665 250.327 226.665 243.047C226.665 235.766 220.741 230.052 213.17 230.052ZM213.17 249.376C209.741 249.376 207.098 246.585 207.098 243.047C207.098 239.508 209.783 236.663 213.17 236.663C216.558 236.663 219.228 239.453 219.228 243.047C219.228 246.641 216.599 249.376 213.17 249.376Z" fill="white"/>
<path d="M244.392 229.96C241.717 229.96 239.506 231.036 237.86 233.022V230.528H230.244V255.52H237.86V239.647C239.133 237.66 241.243 236.482 243.647 236.482C244.957 236.482 246.276 236.764 247.255 237.231V230.574C246.603 230.144 245.844 230.006 244.392 229.96Z" fill="white"/>
<path d="M236.427 86.5036C230.424 86.5036 225.547 91.3729 225.547 97.3842C225.547 103.396 230.439 108.265 236.427 108.265C242.416 108.265 247.308 103.396 247.308 97.3842C247.308 91.3729 242.439 86.5036 236.427 86.5036ZM236.427 105.88C231.743 105.88 227.931 102.076 227.931 97.3842C227.931 92.6925 231.736 88.8881 236.427 88.8881C241.119 88.8881 244.924 92.6925 244.924 97.3842C244.924 102.076 241.119 105.88 236.427 105.88Z" fill="white"/>
<path d="M240.331 102.446H240.323L240.331 102.461V102.446Z" fill="white"/>
<path d="M238.203 98.3488C238.727 98.0787 239.136 97.6852 239.383 97.199C239.638 96.7283 239.754 96.1804 239.754 95.5785C239.754 94.9766 239.638 94.4133 239.383 93.9348C239.113 93.4409 238.72 93.0551 238.203 92.7696C237.693 92.4841 237.037 92.3452 236.243 92.3452H232.739V102.446H234.483V98.7423H236.328L238.326 102.446H240.333L238.126 98.4028C238.126 98.4028 238.18 98.3488 238.21 98.3488H238.203ZM234.475 93.9657H236.204C236.659 93.9657 237.03 94.0351 237.308 94.1663C237.562 94.2821 237.732 94.4673 237.848 94.6911C237.963 94.9303 238.033 95.2158 238.033 95.5553C238.033 95.8949 237.963 96.165 237.848 96.4042C237.732 96.628 237.562 96.79 237.308 96.9135C237.037 97.0292 236.667 97.0987 236.204 97.0987H234.475V93.9657Z" fill="white"/>
<defs>
<linearGradient id="paint0_linear_1043_10497" x1="171.179" y1="86.5036" x2="171.179" y2="207.108" gradientUnits="userSpaceOnUse">
<stop stop-color="#8685E4"/>
<stop offset="0.684876" stop-color="#4699E6"/>
<stop offset="1" stop-color="#28E7E7"/>
</linearGradient>
</defs>
</svg>
