<svg width="142" height="143" viewBox="0 0 142 143" fill="none" xmlns="http://www.w3.org/2000/svg">
<path d="M68.3421 65.7218C68.289 65.5371 68.2144 65.3739 68.1182 65.2322C68.0221 65.088 67.9044 64.9666 67.7653 64.8679C67.6287 64.7667 67.4718 64.6895 67.2947 64.6364C67.1201 64.5833 66.9265 64.5567 66.714 64.5567C66.3168 64.5567 65.9676 64.6554 65.6665 64.8527C65.368 65.0501 65.1352 65.3372 64.9682 65.7142C64.8012 66.0887 64.7178 66.5466 64.7178 67.0881C64.7178 67.6295 64.8 68.09 64.9644 68.4695C65.1289 68.849 65.3617 69.1387 65.6628 69.3386C65.9638 69.536 66.3193 69.6346 66.7292 69.6346C67.1011 69.6346 67.4187 69.5689 67.6818 69.4373C67.9474 69.3032 68.1499 69.1147 68.289 68.8718C68.4307 68.6289 68.5015 68.3418 68.5015 68.0103L68.8355 68.0596H66.8317V66.8224H70.0841V67.8016C70.0841 68.4847 69.9399 69.0717 69.6515 69.5625C69.363 70.0509 68.9658 70.4278 68.4598 70.6935C67.9538 70.9566 67.3744 71.0882 66.7216 71.0882C65.9929 71.0882 65.3528 70.9275 64.8012 70.6062C64.2497 70.2824 63.8196 69.8231 63.5109 69.2286C63.2047 68.6315 63.0517 67.923 63.0517 67.1033C63.0517 66.4733 63.1428 65.9116 63.3249 65.4182C63.5096 64.9223 63.7677 64.5023 64.0991 64.1582C64.4306 63.8141 64.8164 63.5522 65.2567 63.3726C65.6969 63.193 66.1738 63.1031 66.6874 63.1031C67.1277 63.1031 67.5376 63.1677 67.9171 63.2967C68.2966 63.4232 68.6331 63.6028 68.9266 63.8356C69.2226 64.0684 69.4643 64.3454 69.6515 64.6668C69.8387 64.9856 69.9589 65.3372 70.012 65.7218H68.3421ZM73.6776 71.0958C73.078 71.0958 72.5618 70.9743 72.1292 70.7315C71.699 70.486 71.3676 70.1394 71.1348 69.6916C70.9021 69.2412 70.7857 68.7086 70.7857 68.0938C70.7857 67.4942 70.9021 66.9679 71.1348 66.515C71.3676 66.0621 71.6952 65.7092 72.1178 65.4562C72.5428 65.2031 73.0413 65.0766 73.6131 65.0766C73.9977 65.0766 74.3557 65.1386 74.6871 65.2626C75.0211 65.384 75.3121 65.5675 75.56 65.8129C75.8105 66.0583 76.0053 66.367 76.1445 66.7389C76.2836 67.1083 76.3532 67.541 76.3532 68.0369V68.4809H71.4309V67.479H74.8313C74.8313 67.2462 74.7807 67.04 74.6795 66.8604C74.5783 66.6807 74.4379 66.5403 74.2583 66.4391C74.0811 66.3354 73.8749 66.2835 73.6396 66.2835C73.3942 66.2835 73.1766 66.3404 72.9869 66.4543C72.7996 66.5656 72.6529 66.7162 72.5466 66.9059C72.4404 67.0931 72.386 67.3019 72.3834 67.5321V68.4847C72.3834 68.7731 72.4366 69.0224 72.5428 69.2324C72.6516 69.4424 72.8047 69.6043 73.0021 69.7181C73.1994 69.832 73.4334 69.8889 73.7042 69.8889C73.8838 69.8889 74.0483 69.8636 74.1975 69.813C74.3468 69.7624 74.4746 69.6865 74.5808 69.5853C74.6871 69.4841 74.7681 69.3601 74.8237 69.2134L76.319 69.3121C76.2431 69.6713 76.0875 69.9851 75.8522 70.2533C75.6195 70.5189 75.3184 70.7264 74.949 70.8757C74.5821 71.0224 74.1583 71.0958 73.6776 71.0958ZM79.7749 71.0958C79.1854 71.0958 78.6756 70.9705 78.2455 70.7201C77.8179 70.4671 77.4877 70.1154 77.2549 69.665C77.0222 69.2121 76.9058 68.6871 76.9058 68.09C76.9058 67.4878 77.0222 66.9616 77.2549 66.5112C77.4877 66.0583 77.8179 65.7066 78.2455 65.4562C78.6756 65.2031 79.1854 65.0766 79.7749 65.0766C80.3644 65.0766 80.873 65.2031 81.3006 65.4562C81.7307 65.7066 82.0622 66.0583 82.2949 66.5112C82.5277 66.9616 82.6441 67.4878 82.6441 68.09C82.6441 68.6871 82.5277 69.2121 82.2949 69.665C82.0622 70.1154 81.7307 70.4671 81.3006 70.7201C80.873 70.9705 80.3644 71.0958 79.7749 71.0958ZM79.7825 69.8434C80.0507 69.8434 80.2746 69.7675 80.4543 69.6157C80.6339 69.4613 80.7693 69.2513 80.8603 68.9857C80.954 68.72 81.0008 68.4177 81.0008 68.0786C81.0008 67.7396 80.954 67.4372 80.8603 67.1716C80.7693 66.9059 80.6339 66.6959 80.4543 66.5416C80.2746 66.3872 80.0507 66.3101 79.7825 66.3101C79.5118 66.3101 79.2841 66.3872 79.0994 66.5416C78.9172 66.6959 78.7793 66.9059 78.6857 67.1716C78.5946 67.4372 78.5491 67.7396 78.5491 68.0786C78.5491 68.4177 78.5946 68.72 78.6857 68.9857C78.7793 69.2513 78.9172 69.4613 79.0994 69.6157C79.2841 69.7675 79.5118 69.8434 79.7825 69.8434ZM84.4329 70.9819H82.672L85.3552 63.2094H87.4729L90.1523 70.9819H88.3913L86.4444 64.9856H86.3837L84.4329 70.9819ZM84.3229 67.9268H88.4824V69.2096H84.3229V67.9268ZM92.4639 63.2094V70.9819H90.8206V63.2094H92.4639Z" fill="#A78BFA"/>
<path d="M95.7551 70.9819V63.2094H97.3984V66.4163H100.734V63.2094H102.374V70.9819H100.734V67.7712H97.3984V70.9819H95.7551ZM105.093 71.092C104.722 71.092 104.39 71.0275 104.099 70.8984C103.808 70.7669 103.578 70.5733 103.408 70.3178C103.241 70.0597 103.158 69.7384 103.158 69.3538C103.158 69.0299 103.217 68.758 103.336 68.5378C103.455 68.3177 103.617 68.1406 103.822 68.0065C104.027 67.8724 104.26 67.7712 104.52 67.7029C104.784 67.6346 105.059 67.5865 105.348 67.5587C105.687 67.5233 105.96 67.4904 106.168 67.46C106.375 67.4271 106.526 67.379 106.619 67.3158C106.713 67.2525 106.76 67.1589 106.76 67.035V67.0122C106.76 66.7718 106.684 66.5859 106.532 66.4543C106.383 66.3227 106.17 66.2569 105.894 66.2569C105.603 66.2569 105.372 66.3215 105.2 66.4505C105.028 66.577 104.914 66.7364 104.858 66.9287L103.363 66.8072C103.439 66.453 103.588 66.1469 103.811 65.8888C104.033 65.6282 104.321 65.4283 104.672 65.2892C105.026 65.1475 105.436 65.0766 105.902 65.0766C106.226 65.0766 106.536 65.1146 106.832 65.1905C107.13 65.2664 107.395 65.384 107.625 65.5434C107.858 65.7028 108.041 65.9078 108.175 66.1583C108.309 66.4062 108.376 66.7035 108.376 67.0501V70.9819H106.843V70.1736H106.798C106.704 70.3557 106.579 70.5164 106.422 70.6555C106.265 70.7922 106.076 70.8997 105.856 70.9781C105.636 71.054 105.382 71.092 105.093 71.092ZM105.557 69.9762C105.794 69.9762 106.004 69.9294 106.186 69.8358C106.369 69.7396 106.512 69.6106 106.615 69.4487C106.719 69.2868 106.771 69.1033 106.771 68.8984V68.2798C106.72 68.3127 106.651 68.343 106.562 68.3709C106.476 68.3962 106.379 68.4202 106.27 68.443C106.161 68.4632 106.052 68.4822 105.944 68.4999C105.835 68.5151 105.736 68.529 105.648 68.5416C105.458 68.5695 105.292 68.6137 105.15 68.6745C105.009 68.7352 104.899 68.8174 104.82 68.9212C104.742 69.0224 104.703 69.1489 104.703 69.3007C104.703 69.5208 104.782 69.689 104.942 69.8054C105.104 69.9193 105.309 69.9762 105.557 69.9762ZM111.997 71.0958C111.4 71.0958 110.887 70.9693 110.456 70.7163C110.029 70.4607 109.7 70.1065 109.47 69.6536C109.242 69.2007 109.128 68.6795 109.128 68.09C109.128 67.4929 109.243 66.9692 109.474 66.5188C109.706 66.0659 110.036 65.713 110.464 65.46C110.892 65.2044 111.4 65.0766 111.99 65.0766C112.498 65.0766 112.944 65.169 113.326 65.3537C113.708 65.5384 114.01 65.7977 114.233 66.1317C114.455 66.4657 114.578 66.8578 114.601 67.3082H113.075C113.032 67.0172 112.918 66.7832 112.734 66.6061C112.551 66.4265 112.312 66.3366 112.016 66.3366C111.766 66.3366 111.547 66.405 111.36 66.5416C111.175 66.6757 111.031 66.8718 110.927 67.1298C110.823 67.3879 110.771 67.7004 110.771 68.0672C110.771 68.4392 110.822 68.7554 110.923 69.016C111.027 69.2766 111.172 69.4752 111.36 69.6119C111.547 69.7485 111.766 69.8168 112.016 69.8168C112.201 69.8168 112.367 69.7789 112.513 69.703C112.663 69.6271 112.785 69.517 112.882 69.3728C112.98 69.226 113.045 69.0502 113.075 68.8452H114.601C114.575 69.2906 114.454 69.6827 114.236 70.0218C114.021 70.3583 113.724 70.6214 113.345 70.8112C112.965 71.0009 112.516 71.0958 111.997 71.0958ZM116.834 69.3045L116.837 67.3651H117.073L118.94 65.1525H120.796L118.287 68.0824H117.904L116.834 69.3045ZM115.369 70.9819V63.2094H116.985V70.9819H115.369ZM119.012 70.9819L117.297 68.443L118.375 67.3006L120.906 70.9819H119.012Z" fill="#131A20"/>
<path d="M25.2708 62.6741C24.9543 63.9313 26.9303 65.6282 30.2455 67.224C30.3072 68.0141 30.4654 68.7808 30.7047 69.5009C24.5954 67.0449 20.6705 64.0714 21.2108 61.9268C21.4848 60.8487 22.8433 60.1326 24.962 59.7823C27.0036 59.4475 29.7515 59.4514 32.9007 59.8173C32.5225 60.2065 32.179 60.6269 31.8741 61.0745C28.9526 60.911 26.7335 61.2107 25.7686 61.9696C25.5062 62.1681 25.3364 62.4056 25.2708 62.6741Z" fill="#A78BFA"/>
<path d="M57.8667 71.3146C57.7972 71.5871 57.6583 71.84 57.4499 72.0658C56.0721 73.6032 51.7265 74.0741 46.115 73.4202C46.6823 72.8909 47.184 72.2876 47.6009 71.626C51.1707 71.7933 53.6291 71.2523 53.9417 70.0146C54.2543 68.7692 52.317 67.0956 49.0635 65.5115C49.0134 64.9588 48.9092 64.4217 48.7664 63.9001C49.3221 64.1298 49.8586 64.3672 50.3757 64.6046C55.3195 66.8659 58.3452 69.4153 57.8667 71.3146Z" fill="#A78BFA"/>
<path d="M49.1137 66.4691C49.1137 68.3685 48.5618 70.1394 47.6009 71.6262C47.184 72.2878 46.6823 72.8911 46.115 73.4205C45.8449 73.3932 45.5747 73.3582 45.3007 73.3193C44.7141 72.7082 44.2162 72.0076 43.8303 71.2448C43.236 70.0693 42.904 68.7382 42.904 67.3293C42.904 65.9204 43.2321 64.6087 43.8187 63.4411C44.0117 63.0597 44.2278 62.6938 44.4748 62.3474C44.6909 62.0321 44.9302 61.7325 45.1965 61.4522C45.2968 61.3394 45.401 61.2304 45.513 61.1214C45.3895 61.2226 45.266 61.3238 45.1347 61.4172C44.7527 61.7013 44.3436 61.9543 43.9152 62.1723C43.3016 62.4797 42.6455 62.721 41.9585 62.8767C41.3526 63.013 40.7274 63.083 40.0829 63.083C38.1764 63.083 36.4088 62.4525 34.9886 61.3861C34.5795 61.0825 34.1974 60.74 33.8501 60.3663C34.0971 60.6699 34.3248 60.9891 34.5293 61.3238C35.3359 62.6393 35.8029 64.1962 35.8029 65.8581C35.8029 67.0335 35.5713 68.1505 35.1468 69.1664C35.0387 69.4427 34.9114 69.7074 34.7686 69.9643C34.6219 70.2484 34.4521 70.5247 34.2669 70.7894C33.9157 71.307 33.5027 71.7819 33.0435 72.2061C33.6146 71.7274 34.2514 71.3187 34.9384 70.9996C35.2433 70.8556 35.5597 70.731 35.8878 70.6259C36.7175 70.3535 37.6013 70.2095 38.5199 70.2095C38.597 70.2095 38.6742 70.2095 38.7476 70.2134C39.8745 70.2406 40.9435 70.4897 41.9199 70.9217H41.9238C43.151 71.4549 44.2278 72.2723 45.0691 73.2881C42.9697 73.004 40.7158 72.5642 38.3925 71.9765C38.462 72.0115 38.5314 72.0465 38.6009 72.0816C40.6463 73.1013 42.6686 73.9459 44.5867 74.5998C43.1549 75.4872 41.4684 75.997 39.6622 75.997C36.8025 75.997 34.2437 74.7165 32.5109 72.6926C32.507 72.6887 32.4993 72.681 32.4954 72.6732C31.712 71.7546 31.0984 70.6804 30.7047 69.5011C30.4654 68.7811 30.3072 68.0143 30.2455 67.2242C30.2339 67.0763 30.2262 66.9284 30.2223 66.7766C30.2146 66.6754 30.2146 66.5742 30.2146 66.4691C30.2146 64.4647 30.8282 62.6082 31.8741 61.0747C32.179 60.6271 32.5225 60.2067 32.9007 59.8175C32.9701 59.7397 33.0512 59.6619 33.1284 59.584C33.1399 59.5723 33.1554 59.5568 33.1708 59.5412C33.9813 58.7706 34.9307 58.14 35.9727 57.6963C37.1035 57.2059 38.35 56.9374 39.6622 56.9374C42.4178 56.9374 44.8955 58.1245 46.6206 60.0199C46.6592 60.0588 46.6939 60.0978 46.7286 60.1367C47.5661 61.0864 48.2183 62.2073 48.6236 63.4372C48.6776 63.589 48.7239 63.7447 48.7664 63.9004C48.9092 64.4219 49.0134 64.959 49.0635 65.5117C49.0983 65.827 49.1137 66.1461 49.1137 66.4691Z" fill="#A78BFA"/>
<path d="M52.9885 61.2068C53.6279 61.2068 54.1463 60.6841 54.1463 60.0392C54.1463 59.3943 53.6279 58.8716 52.9885 58.8716C52.349 58.8716 51.8307 59.3943 51.8307 60.0392C51.8307 60.6841 52.349 61.2068 52.9885 61.2068Z" fill="#A78BFA"/>
<path d="M28.2888 75.9968C29.5677 75.9968 30.6044 74.9513 30.6044 73.6616C30.6044 72.3718 29.5677 71.3263 28.2888 71.3263C27.0099 71.3263 25.9732 72.3718 25.9732 73.6616C25.9732 74.9513 27.0099 75.9968 28.2888 75.9968Z" fill="#A78BFA"/>
</svg>
