<svg width="142" height="143" viewBox="0 0 142 143" fill="none" xmlns="http://www.w3.org/2000/svg">
<path d="M31.8141 60.7839C30.9582 64.1838 36.3021 68.773 45.2676 73.0886C45.4346 75.2253 45.8625 77.2989 46.5096 79.2462C29.9876 72.6044 19.373 64.5627 20.8342 58.763C21.5752 55.8473 25.2491 53.9106 30.9791 52.9632C36.5004 52.058 43.9316 52.0685 52.4484 53.058C51.4255 54.1105 50.4966 55.2473 49.6721 56.4578C41.7711 56.0157 35.7698 56.8262 33.1605 58.8787C32.4507 59.4156 31.9915 60.0576 31.8141 60.7839Z" fill="#A78BFA"/>
<path d="M119.966 84.1513C119.779 84.8881 119.403 85.5723 118.839 86.1828C115.113 90.3405 103.361 91.6141 88.1852 89.8458C89.7195 88.4142 91.0763 86.7827 92.2035 84.9934C101.858 85.446 108.506 83.9829 109.352 80.6357C110.197 77.2674 104.958 72.7413 96.1592 68.4573C96.0235 66.9626 95.7417 65.5101 95.3555 64.0996C96.8585 64.7206 98.3092 65.3627 99.7078 66.0048C113.078 72.1203 121.261 79.0147 119.966 84.1513Z" fill="#A78BFA"/>
<path d="M96.2949 71.0474C96.2949 76.184 94.8024 80.9732 92.2035 84.9941C91.0763 86.7835 89.7195 88.415 88.1852 89.8465C87.4546 89.7728 86.724 89.6781 85.983 89.5728C84.3965 87.9203 83.0501 86.0256 82.0064 83.9625C80.3991 80.7837 79.5015 77.1839 79.5015 73.3736C79.5015 69.5632 80.3886 66.016 81.9751 62.8583C82.497 61.8268 83.0814 60.8373 83.7494 59.9005C84.3339 59.0479 84.981 58.2375 85.7012 57.4796C85.9725 57.1743 86.2543 56.8796 86.557 56.5849C86.223 56.8586 85.889 57.1322 85.5342 57.3849C84.5009 58.1532 83.3946 58.8374 82.236 59.4269C80.5765 60.2584 78.8022 60.911 76.9444 61.332C75.3057 61.7004 73.6149 61.8899 71.8719 61.8899C66.716 61.8899 61.9357 60.1847 58.0949 57.3007C56.9885 56.4796 55.9552 55.5534 55.0159 54.5429C55.6839 55.3639 56.2997 56.227 56.8528 57.1322C59.0342 60.69 60.2971 64.9003 60.2971 69.3948C60.2971 72.5736 59.6709 75.5945 58.5228 78.3418C58.2305 79.0891 57.8861 79.8049 57.4999 80.4996C57.1033 81.2679 56.6441 82.0153 56.1431 82.731C55.1933 84.131 54.0766 85.4151 52.8345 86.5624C54.3792 85.2677 56.1014 84.1625 57.9592 83.2994C58.7837 82.91 59.6396 82.5731 60.5267 82.2889C62.7707 81.5521 65.1608 81.1627 67.6449 81.1627C67.8536 81.1627 68.0624 81.1627 68.2607 81.1732C71.3083 81.2469 74.1994 81.9205 76.84 83.0889H76.8505C80.1695 84.5309 83.0814 86.7414 85.3567 89.4886C79.6789 88.7202 73.5836 87.5308 67.3004 85.9414C67.4883 86.0361 67.6762 86.1309 67.864 86.2256C73.3957 88.9834 78.8648 91.2675 84.0521 93.0358C80.1799 95.4357 75.6189 96.8146 70.7343 96.8146C63.0003 96.8146 56.0805 93.3516 51.3942 87.8781C51.3838 87.8676 51.3629 87.8466 51.3525 87.8255C49.2337 85.3414 47.5742 82.4363 46.5096 79.247C45.8625 77.2997 45.4346 75.2261 45.2676 73.0894C45.2363 72.6894 45.2154 72.2894 45.205 71.8789C45.1841 71.6052 45.1841 71.3316 45.1841 71.0474C45.1841 65.6266 46.8436 60.6058 49.6721 56.4586C50.4966 55.2481 51.4255 54.1113 52.4484 53.0588C52.6362 52.8482 52.8554 52.6377 53.0641 52.4272C53.0955 52.3956 53.1372 52.3535 53.179 52.3114C55.3708 50.2273 57.9383 48.5221 60.7563 47.3222C63.8144 45.9959 67.1856 45.2697 70.7343 45.2697C78.1864 45.2697 84.8871 48.48 89.5525 53.6061C89.6569 53.7114 89.7508 53.8166 89.8447 53.9219C92.1096 56.4902 93.8735 59.5216 94.9694 62.8478C95.1155 63.2583 95.2407 63.6793 95.3555 64.1003C95.7417 65.5108 96.0235 66.9634 96.1592 68.458C96.2531 69.3106 96.2949 70.1737 96.2949 71.0474Z" fill="#A78BFA"/>
<path d="M106.774 56.8159C108.503 56.8159 109.905 55.4021 109.905 53.6581C109.905 51.9141 108.503 50.5004 106.774 50.5004C105.045 50.5004 103.643 51.9141 103.643 53.6581C103.643 55.4021 105.045 56.8159 106.774 56.8159Z" fill="#A78BFA"/>
<path d="M39.976 96.8141C43.4346 96.8141 46.2383 93.9865 46.2383 90.4986C46.2383 87.0106 43.4346 84.1831 39.976 84.1831C36.5175 84.1831 33.7137 87.0106 33.7137 90.4986C33.7137 93.9865 36.5175 96.8141 39.976 96.8141Z" fill="#A78BFA"/>
</svg>
