<svg width="142" height="143" viewBox="0 0 142 143" fill="none" xmlns="http://www.w3.org/2000/svg">
<path d="M112.921 103.234L112.927 99.9412H113.327L116.497 96.1844H119.648L115.389 101.159H114.738L112.921 103.234ZM110.433 106.082V92.885H113.179V106.082H110.433ZM116.62 106.082L113.707 101.771L115.537 99.8317L119.835 106.082H116.62Z" fill="#F8FAFC"/>
<path d="M104.709 106.276C103.695 106.276 102.823 106.061 102.093 105.631C101.367 105.197 100.808 104.596 100.417 103.827C100.031 103.058 99.8372 102.173 99.8372 101.172C99.8372 100.158 100.033 99.269 100.424 98.5043C100.819 97.7353 101.379 97.136 102.106 96.7064C102.832 96.2725 103.695 96.0555 104.696 96.0555C105.56 96.0555 106.316 96.2123 106.964 96.526C107.613 96.8396 108.126 97.2799 108.504 97.847C108.882 98.4141 109.091 99.0799 109.129 99.8446H106.539C106.466 99.3506 106.273 98.9532 105.959 98.6525C105.65 98.3475 105.244 98.195 104.741 98.195C104.316 98.195 103.944 98.311 103.626 98.5429C103.313 98.7706 103.068 99.1036 102.892 99.5418C102.716 99.98 102.627 100.511 102.627 101.133C102.627 101.765 102.713 102.302 102.885 102.744C103.061 103.187 103.308 103.524 103.626 103.756C103.944 103.988 104.316 104.104 104.741 104.104C105.055 104.104 105.336 104.04 105.585 103.911C105.839 103.782 106.047 103.595 106.21 103.35C106.378 103.101 106.487 102.802 106.539 102.454H109.129C109.087 103.211 108.88 103.876 108.511 104.452C108.146 105.023 107.641 105.47 106.997 105.792C106.352 106.115 105.59 106.276 104.709 106.276Z" fill="#F8FAFC"/>
<path d="M92.9865 106.269C92.355 106.269 91.7922 106.16 91.2982 105.941C90.8042 105.717 90.4132 105.389 90.1254 104.955C89.8418 104.517 89.7001 103.971 89.7001 103.318C89.7001 102.768 89.801 102.306 90.0029 101.932C90.2049 101.559 90.4798 101.258 90.8278 101.03C91.1758 100.803 91.571 100.631 92.0135 100.515C92.4603 100.399 92.9285 100.317 93.4183 100.27C93.9939 100.21 94.4579 100.154 94.8102 100.102C95.1625 100.047 95.4181 99.9649 95.577 99.8575C95.736 99.7501 95.8155 99.5912 95.8155 99.3807V99.342C95.8155 98.9339 95.6866 98.6181 95.4288 98.3947C95.1753 98.1713 94.8145 98.0596 94.3462 98.0596C93.8522 98.0596 93.4591 98.1692 93.167 98.3883C92.8748 98.6031 92.6815 98.8737 92.587 99.2002L90.0481 98.994C90.1769 98.3926 90.4304 97.8728 90.8084 97.4346C91.1865 96.9921 91.6741 96.6527 92.2712 96.4164C92.8727 96.1758 93.5686 96.0555 94.3591 96.0555C94.909 96.0555 95.4353 96.12 95.9379 96.2489C96.4448 96.3777 96.8938 96.5775 97.2847 96.8482C97.6799 97.1188 97.9914 97.4668 98.2191 97.8921C98.4468 98.3131 98.5606 98.8179 98.5606 99.4064V106.082H95.9572V104.71H95.8799C95.7209 105.019 95.5083 105.292 95.2419 105.528C94.9756 105.76 94.6555 105.943 94.2818 106.076C93.908 106.205 93.4763 106.269 92.9865 106.269ZM93.7727 104.375C94.1765 104.375 94.5331 104.295 94.8424 104.136C95.1517 103.973 95.3944 103.754 95.5706 103.479C95.7467 103.204 95.8348 102.893 95.8348 102.545V101.494C95.7489 101.55 95.6307 101.602 95.4804 101.649C95.3343 101.692 95.1689 101.733 94.9842 101.771C94.7994 101.806 94.6147 101.838 94.43 101.868C94.2453 101.894 94.0777 101.917 93.9274 101.939C93.6052 101.986 93.3238 102.061 93.0832 102.164C92.8426 102.268 92.6557 102.407 92.5226 102.583C92.3894 102.755 92.3228 102.97 92.3228 103.228C92.3228 103.601 92.4581 103.887 92.7288 104.085C93.0037 104.278 93.3517 104.375 93.7727 104.375Z" fill="#F8FAFC"/>
<path d="M77.1304 106.082V92.885H79.9207V98.3302H85.585V92.885H88.3688V106.082H85.585V100.631H79.9207V106.082H77.1304Z" fill="#F8FAFC"/>
<path d="M71.5422 92.885V106.082H68.7519V92.885H71.5422Z" fill="#A78BFA"/>
<path d="M57.9059 106.082H54.9159L59.4718 92.885H63.0676L67.6171 106.082H64.627L61.3213 95.9008H61.2182L57.9059 106.082ZM57.719 100.895H64.7817V103.073H57.719V100.895Z" fill="#A78BFA"/>
<path d="M49.9969 106.276C48.9959 106.276 48.1302 106.063 47.3999 105.638C46.6739 105.208 46.1133 104.611 45.718 103.846C45.3228 103.077 45.1252 102.186 45.1252 101.172C45.1252 100.15 45.3228 99.2561 45.718 98.4914C46.1133 97.7224 46.6739 97.1252 47.3999 96.6999C48.1302 96.2703 48.9959 96.0555 49.9969 96.0555C50.9978 96.0555 51.8613 96.2703 52.5874 96.6999C53.3177 97.1252 53.8805 97.7224 54.2757 98.4914C54.6709 99.2561 54.8686 100.15 54.8686 101.172C54.8686 102.186 54.6709 103.077 54.2757 103.846C53.8805 104.611 53.3177 105.208 52.5874 105.638C51.8613 106.063 50.9978 106.276 49.9969 106.276ZM50.0098 104.149C50.4651 104.149 50.8453 104.02 51.1503 103.763C51.4554 103.501 51.6852 103.144 51.8399 102.693C51.9988 102.242 52.0783 101.728 52.0783 101.153C52.0783 100.577 51.9988 100.064 51.8399 99.6126C51.6852 99.1616 51.4554 98.805 51.1503 98.5429C50.8453 98.2809 50.4651 98.1498 50.0098 98.1498C49.5501 98.1498 49.1634 98.2809 48.8498 98.5429C48.5405 98.805 48.3064 99.1616 48.1474 99.6126C47.9928 100.064 47.9154 100.577 47.9154 101.153C47.9154 101.728 47.9928 102.242 48.1474 102.693C48.3064 103.144 48.5405 103.501 48.8498 103.763C49.1634 104.02 49.5501 104.149 50.0098 104.149Z" fill="#A78BFA"/>
<path d="M39.6439 106.276C38.6257 106.276 37.7493 106.07 37.0147 105.657C36.2844 105.24 35.7216 104.652 35.3264 103.891C34.9311 103.127 34.7335 102.222 34.7335 101.179C34.7335 100.16 34.9311 99.2668 35.3264 98.4978C35.7216 97.7288 36.2779 97.1295 36.9954 96.6999C37.7171 96.2703 38.5634 96.0555 39.5343 96.0555C40.1873 96.0555 40.7952 96.1608 41.358 96.3713C41.9251 96.5775 42.4191 96.889 42.8401 97.3057C43.2654 97.7224 43.5962 98.2465 43.8325 98.878C44.0688 99.5052 44.1869 100.24 44.1869 101.082V101.836H35.829V100.135H41.6029C41.6029 99.7394 41.5169 99.3893 41.3451 99.0842C41.1733 98.7792 40.9348 98.5408 40.6298 98.3689C40.3291 98.1928 39.979 98.1047 39.5794 98.1047C39.1627 98.1047 38.7933 98.2014 38.4711 98.3947C38.1532 98.5837 37.904 98.8394 37.7235 99.1616C37.5431 99.4795 37.4508 99.8339 37.4465 100.225V101.842C37.4465 102.332 37.5367 102.755 37.7171 103.112C37.9018 103.468 38.1617 103.743 38.4968 103.937C38.8319 104.13 39.2293 104.227 39.689 104.227C39.994 104.227 40.2732 104.184 40.5267 104.098C40.7802 104.012 40.9971 103.883 41.1775 103.711C41.358 103.539 41.4955 103.329 41.59 103.08L44.1289 103.247C44 103.857 43.7358 104.39 43.3363 104.845C42.9411 105.296 42.4298 105.649 41.8026 105.902C41.1797 106.151 40.4601 106.276 39.6439 106.276Z" fill="#A78BFA"/>
<path d="M30.5846 97.151C30.4943 96.8374 30.3676 96.5603 30.2044 96.3197C30.0411 96.0748 29.8414 95.8686 29.6051 95.7011C29.3731 95.5292 29.1067 95.3982 28.806 95.308C28.5096 95.2178 28.1809 95.1727 27.8201 95.1727C27.1456 95.1727 26.5528 95.3402 26.0415 95.6753C25.5346 96.0104 25.1394 96.498 24.8558 97.1381C24.5723 97.7739 24.4305 98.5515 24.4305 99.4708C24.4305 100.39 24.5701 101.172 24.8494 101.816C25.1286 102.461 25.5239 102.953 26.0351 103.292C26.5463 103.627 27.1499 103.795 27.8459 103.795C28.4774 103.795 29.0165 103.683 29.4633 103.46C29.9144 103.232 30.2581 102.912 30.4943 102.5C30.7349 102.087 30.8552 101.599 30.8552 101.037L31.4223 101.12H28.0198V99.0197H33.5424V100.682C33.5424 101.842 33.2975 102.839 32.8078 103.672C32.318 104.501 31.6435 105.142 30.7843 105.593C29.9251 106.039 28.9413 106.263 27.833 106.263C26.5957 106.263 25.5088 105.99 24.5723 105.444C23.6358 104.895 22.9054 104.115 22.3813 103.105C21.8615 102.091 21.6016 100.889 21.6016 99.4966C21.6016 98.4269 21.7562 97.4732 22.0656 96.6354C22.3792 95.7934 22.8174 95.0803 23.3801 94.496C23.9429 93.9118 24.5981 93.4671 25.3456 93.1621C26.0931 92.8571 26.9029 92.7046 27.775 92.7046C28.5225 92.7046 29.2184 92.8141 29.8628 93.0332C30.5072 93.248 31.0786 93.5531 31.5769 93.9483C32.0796 94.3435 32.4898 94.8139 32.8078 95.3595C33.1257 95.9008 33.3297 96.498 33.4199 97.151H30.5846Z" fill="#A78BFA"/>
<path d="M37.3832 48.8338C36.6413 51.7812 41.274 55.7598 49.0466 59.5012C49.1914 61.3536 49.5623 63.1512 50.1233 64.8394C35.7998 59.0814 26.5976 52.1097 27.8644 47.0817C28.5068 44.5541 31.6918 42.875 36.6594 42.0538C41.446 41.269 47.8884 41.2781 55.2718 42.1359C54.3851 43.0484 53.5798 44.0339 52.865 45.0833C46.0154 44.7001 40.8126 45.4027 38.5505 47.1821C37.9352 47.6475 37.5371 48.2041 37.3832 48.8338Z" fill="#A78BFA"/>
<path d="M113.806 69.0919C113.643 69.7307 113.317 70.3238 112.828 70.8531C109.598 74.4575 99.4097 75.5617 86.2534 74.0286C87.5835 72.7876 88.7598 71.3732 89.737 69.8219C98.1068 70.2143 103.871 68.9459 104.603 66.0441C105.336 63.124 100.794 59.2002 93.1664 55.4862C93.0487 54.1904 92.8044 52.9312 92.4696 51.7084C93.7726 52.2468 95.0303 52.8034 96.2428 53.36C107.834 58.6618 114.928 64.6388 113.806 69.0919Z" fill="#A78BFA"/>
<path d="M93.284 57.7316C93.284 62.1847 91.9901 66.3366 89.737 69.8225C88.7598 71.3737 87.5835 72.7881 86.2534 74.0292C85.62 73.9653 84.9867 73.8832 84.3442 73.7919C82.9689 72.3593 81.8016 70.7167 80.8968 68.9282C79.5034 66.1724 78.7252 63.0516 78.7252 59.7482C78.7252 56.4449 79.4943 53.3697 80.8696 50.6321C81.3221 49.7379 81.8288 48.8801 82.4079 48.068C82.9146 47.3288 83.4756 46.6262 84.0999 45.9692C84.3352 45.7045 84.5795 45.449 84.8419 45.1935C84.5523 45.4308 84.2628 45.668 83.9551 45.887C83.0594 46.5532 82.1002 47.1463 81.0959 47.6573C79.6572 48.3782 78.1189 48.944 76.5083 49.309C75.0877 49.6284 73.6219 49.7926 72.1108 49.7926C67.6409 49.7926 63.4968 48.3143 60.167 45.814C59.2079 45.1023 58.3121 44.2992 57.4977 43.4232C58.0768 44.135 58.6107 44.8833 59.0902 45.668C60.9814 48.7523 62.0762 52.4024 62.0762 56.2989C62.0762 59.0547 61.5333 61.6736 60.538 64.0553C60.2846 64.7032 59.986 65.3237 59.6512 65.926C59.3074 66.5921 58.9093 67.24 58.475 67.8605C57.6516 69.0742 56.6834 70.1875 55.6066 71.1821C56.9458 70.0597 58.4388 69.1016 60.0494 68.3533C60.7642 68.0157 61.5062 67.7237 62.2753 67.4773C64.2207 66.8385 66.2927 66.5009 68.4463 66.5009C68.6272 66.5009 68.8082 66.5009 68.9801 66.51C71.6222 66.5739 74.1286 67.1579 76.4179 68.1708H76.4269C79.3043 69.4209 81.8288 71.3372 83.8013 73.7189C78.879 73.0528 73.5948 72.0216 68.1477 70.6437C68.3105 70.7259 68.4734 70.808 68.6363 70.8901C73.4319 73.2809 78.1732 75.2611 82.6703 76.7941C79.3133 78.8747 75.3592 80.0701 71.1246 80.0701C64.4197 80.0701 58.4207 77.0679 54.358 72.3228C54.3489 72.3136 54.3308 72.2954 54.3218 72.2771C52.4849 70.1236 51.0463 67.605 50.1233 64.8401C49.5623 63.1519 49.1913 61.3543 49.0466 59.5018C49.0194 59.1551 49.0013 58.8083 48.9923 58.4524C48.9742 58.2152 48.9742 57.9779 48.9742 57.7316C48.9742 53.0321 50.4129 48.6793 52.865 45.084C53.5798 44.0346 54.3851 43.0491 55.2718 42.1366C55.4347 41.9541 55.6247 41.7716 55.8057 41.5891C55.8328 41.5617 55.869 41.5252 55.9052 41.4887C57.8054 39.6819 60.0313 38.2036 62.4743 37.1633C65.1255 36.0136 68.0481 35.3839 71.1246 35.3839C77.5851 35.3839 83.3941 38.1671 87.4388 42.6111C87.5292 42.7023 87.6107 42.7936 87.6921 42.8848C89.6556 45.1114 91.1848 47.7394 92.1349 50.623C92.2615 50.9789 92.3701 51.3439 92.4696 51.7089C92.8044 52.9317 93.0487 54.191 93.1664 55.4868C93.2478 56.2259 93.284 56.9742 93.284 57.7316Z" fill="#A78BFA"/>
<path d="M102.369 45.3938C103.868 45.3938 105.083 44.1682 105.083 42.6563C105.083 41.1444 103.868 39.9187 102.369 39.9187C100.869 39.9187 99.6541 41.1444 99.6541 42.6563C99.6541 44.1682 100.869 45.3938 102.369 45.3938Z" fill="#A78BFA"/>
<path d="M44.4591 80.0696C47.4575 80.0696 49.8882 77.6183 49.8882 74.5945C49.8882 71.5707 47.4575 69.1194 44.4591 69.1194C41.4608 69.1194 39.0301 71.5707 39.0301 74.5945C39.0301 77.6183 41.4608 80.0696 44.4591 80.0696Z" fill="#A78BFA"/>
</svg>
