<svg width="142" height="143" viewBox="0 0 142 143" fill="none" xmlns="http://www.w3.org/2000/svg">
<path d="M47.9688 66.1651C47.583 71.9901 45.5492 76.8543 43.3398 76.8546C41.1655 76.8546 39.342 72.689 39.0264 67.2716C39.427 68.0661 40.1346 68.7276 41.0381 69.1505C41.9417 69.5733 42.9897 69.7335 44.0156 69.6065C45.0415 69.4796 45.9872 69.0726 46.7031 68.4493C47.419 67.826 47.8644 67.0221 47.9688 66.1651ZM30.1533 50.1456C32.8888 50.1456 35.4836 52.913 37.167 57.544C38.1603 60.3876 38.726 63.3223 38.8506 66.2813C38.2143 64.6027 36.8967 63.1591 35.1221 62.1974C33.3473 61.2355 31.2247 60.8154 29.1182 61.0079C27.0118 61.2005 25.0508 61.9939 23.5703 63.253C22.09 64.5122 21.1816 66.1589 21 67.9122C21.2969 64.4057 22.014 60.9326 23.1396 57.544C24.7879 52.913 27.4179 50.1456 30.1533 50.1456Z" fill="white"/>
<path d="M61.783 70.3301H53.962L55.9697 59.3495H58.277L56.6289 68.2912H62.1725L61.783 70.3301Z" fill="white"/>
<path d="M67.3865 70.5048C66.6296 70.5623 65.8692 70.4495 65.1643 70.1753C64.4595 69.901 63.829 69.4727 63.3219 68.9234C62.8148 68.3742 62.4446 67.7188 62.2401 67.0081C62.0356 66.2974 62.0022 65.5505 62.1426 64.8252C62.5325 63.2227 63.4655 61.7941 64.7917 60.7693C66.1178 59.7444 67.76 59.1828 69.4542 59.1747C70.2105 59.1136 70.9711 59.2225 71.6772 59.4931C72.3833 59.7637 73.0158 60.1886 73.5257 60.7349C74.0356 61.2813 74.4093 61.9344 74.6179 62.6437C74.8264 63.353 74.8641 64.0995 74.7281 64.8252C74.3379 66.4355 73.4016 67.8714 72.0699 68.9016C70.7382 69.9319 69.0885 70.4966 67.3865 70.5048V70.5048ZM69.0946 61.2136C68.0137 61.2142 66.9652 61.5721 66.1212 62.2284C65.2772 62.8847 64.6878 63.8004 64.4499 64.8252C64.3205 65.2914 64.3124 65.7816 64.4263 66.2517C64.5402 66.7217 64.7725 67.1568 65.1024 67.5179C65.4323 67.879 65.8493 68.1547 66.316 68.3202C66.7828 68.4857 67.2845 68.5358 67.7761 68.466C68.8582 68.4534 69.9045 68.0876 70.7469 67.4272C71.5893 66.7669 72.1788 65.8505 72.4207 64.8252C72.5441 64.3609 72.5477 63.8741 72.431 63.4082C72.3144 62.9422 72.0812 62.5114 71.7521 62.1541C71.423 61.7968 71.0083 61.524 70.5447 61.3599C70.0811 61.1958 69.583 61.1456 69.0946 61.2136V61.2136Z" fill="white"/>
<path d="M78.2041 61.3883L77.9344 63.7475H82.9985L82.639 65.7864H77.425L76.5859 70.3301H74.2786L76.2863 59.3495H84.1073L83.7477 61.3883H78.2041Z" fill="white"/>
<path d="M84.9463 70.3301H82.639L84.6167 59.3495H86.924L84.9463 70.3301Z" fill="white"/>
<path d="M97.7115 59.3495L100.169 70.3301H97.7415L97.1722 67.8252H92.138L90.6697 70.3301H88.2125L94.685 59.3495H97.7115ZM96.7227 65.7864L95.9136 61.4466L93.2767 65.7864H96.7227Z" fill="white"/>
<path d="M102.626 70.3301H100.319L102.326 59.3495H107.151C107.737 59.3344 108.323 59.4031 108.889 59.5534C109.379 59.7023 109.837 59.9394 110.237 60.2524C110.597 60.5625 110.874 60.9521 111.046 61.3883C111.183 61.8646 111.183 62.3683 111.046 62.8446C110.962 63.3589 110.757 63.8473 110.447 64.2718C110.125 64.7205 109.718 65.1059 109.248 65.4077C108.754 65.7099 108.22 65.9451 107.66 66.1068C107.063 66.2594 106.449 66.3377 105.832 66.3398H103.285L102.626 70.3301ZM103.735 64.3009H106.252C106.62 64.3493 106.993 64.3493 107.36 64.3009C107.636 64.2351 107.899 64.1269 108.14 63.9805C108.318 63.8652 108.47 63.7167 108.589 63.5437C108.705 63.3759 108.786 63.188 108.829 62.9903C108.876 62.7988 108.876 62.5992 108.829 62.4077C108.776 62.2365 108.671 62.0844 108.529 61.9708C108.329 61.8295 108.106 61.7213 107.87 61.6504C107.522 61.6006 107.169 61.6006 106.821 61.6504H104.274L103.735 64.3009Z" fill="white"/>
<path d="M112.515 70.3301H110.207L112.215 59.3495H117.039C117.626 59.3384 118.211 59.407 118.777 59.5534C119.268 59.7023 119.725 59.9394 120.126 60.2524C120.481 60.5602 120.749 60.9512 120.905 61.3883C121.032 61.8659 121.032 62.367 120.905 62.8446C120.808 63.3553 120.604 63.8411 120.306 64.2718C119.983 64.7205 119.577 65.1059 119.107 65.4077C118.602 65.7101 118.058 65.9452 117.489 66.1068C116.903 66.2614 116.298 66.3398 115.691 66.3398H113.144L112.515 70.3301ZM113.593 64.3009H116.14C116.508 64.3493 116.881 64.3493 117.249 64.3009C117.515 64.2356 117.769 64.1273 117.998 63.9805C118.19 63.8821 118.346 63.7299 118.448 63.5437C118.596 63.3491 118.679 63.1155 118.687 62.8738C118.749 62.6843 118.749 62.4807 118.687 62.2912C118.646 62.1221 118.552 61.9695 118.418 61.8543C118.214 61.7187 117.992 61.6109 117.758 61.5339C117.411 61.4861 117.058 61.4861 116.71 61.5339H114.163L113.593 64.3009Z" fill="white"/>
</svg>
