<svg width="142" height="143" viewBox="0 0 142 143" fill="none" xmlns="http://www.w3.org/2000/svg">
<path d="M106.436 78.0316C105.418 93.4167 100.048 106.263 94.2146 106.264C88.474 106.264 83.6594 95.2637 82.826 80.9554C83.8839 83.0537 85.753 84.7996 88.1385 85.9164C90.5242 87.0332 93.2904 87.4577 95.9988 87.1224C98.7073 86.7871 101.204 85.711 103.095 84.0648C104.985 82.4185 106.161 80.2953 106.436 78.0316ZM59.4002 35.722C66.6221 35.7222 73.4734 43.03 77.9178 55.2611C80.5405 62.7718 82.0333 70.5236 82.3621 78.3392C80.6822 73.9053 77.203 70.0924 72.5174 67.5521C67.8317 65.0119 62.2301 63.9013 56.6687 64.4095C51.1071 64.9179 45.9293 67.0143 42.0203 70.3402C38.1115 73.6661 35.7125 78.0164 35.2332 82.6478C36.017 73.386 37.9094 64.2114 40.8816 55.2611C45.2334 43.0298 52.1781 35.722 59.4002 35.722Z" fill="white"/>
</svg>
