<svg width="142" height="143" viewBox="0 0 142 143" fill="none" xmlns="http://www.w3.org/2000/svg">
<path d="M102.526 57.7279C101.619 70.8386 96.8384 81.7865 91.646 81.7865C86.536 81.7863 82.25 72.4119 81.5083 60.2191C82.4499 62.0072 84.1142 63.4948 86.2378 64.4466C88.3615 65.3983 90.8238 65.7607 93.2348 65.4749C95.6458 65.1892 97.8687 64.2723 99.5512 62.8695C101.234 61.4666 102.281 59.6568 102.526 57.7279ZM60.6557 21.6741C67.0845 21.6741 73.1839 27.9015 77.1401 38.3245C79.4747 44.7248 80.8035 51.3304 81.0962 57.9906C79.6009 54.212 76.5036 50.9629 72.3325 48.7982C68.1614 46.6335 63.1747 45.6872 58.2241 46.1204C53.2736 46.5537 48.6655 48.34 45.186 51.1741C41.7065 54.0083 39.5707 57.7148 39.144 61.6615C39.8418 53.769 41.5266 45.9515 44.1723 38.3245C48.046 27.9017 54.2271 21.6744 60.6557 21.6741Z" fill="#131A20"/>
<path d="M43.0956 105.903H34.8505L36.9671 93.8475H39.3995L37.662 103.664H43.5063L43.0956 105.903Z" fill="#131A20"/>
<path d="M49.003 106.095C48.205 106.158 47.4034 106.034 46.6603 105.733C45.9172 105.432 45.2526 104.961 44.718 104.358C44.1834 103.755 43.7931 103.036 43.5775 102.256C43.3619 101.475 43.3267 100.655 43.4747 99.8591C43.8857 98.0997 44.8694 96.5314 46.2674 95.4062C47.6654 94.2811 49.3967 93.6645 51.1827 93.6557C51.9801 93.5886 52.782 93.7082 53.5263 94.0052C54.2707 94.3022 54.9375 94.7687 55.4751 95.3685C56.0127 95.9684 56.4066 96.6854 56.6264 97.4641C56.8463 98.2429 56.886 99.0623 56.7426 99.8591C56.3313 101.627 55.3442 103.203 53.9403 104.334C52.5364 105.466 50.7973 106.085 49.003 106.095V106.095ZM50.8036 95.894C49.6642 95.8947 48.5588 96.2876 47.669 97.0081C46.7793 97.7287 46.158 98.734 45.9071 99.8591C45.7707 100.371 45.7621 100.909 45.8822 101.425C46.0023 101.941 46.2472 102.419 46.595 102.815C46.9427 103.212 47.3824 103.514 47.8744 103.696C48.3665 103.878 48.8954 103.933 49.4137 103.856C50.5545 103.842 51.6575 103.441 52.5456 102.716C53.4337 101.991 54.0552 100.985 54.3102 99.8591C54.4403 99.3494 54.444 98.815 54.321 98.3034C54.1981 97.7918 53.9522 97.3189 53.6053 96.9266C53.2584 96.5343 52.8211 96.2348 52.3324 96.0547C51.8436 95.8746 51.3185 95.8194 50.8036 95.894V95.894Z" fill="#131A20"/>
<path d="M60.4071 96.0859L60.1228 98.676H65.4616L65.0825 100.914H59.5858L58.7012 105.903H56.2688L58.3853 93.8475H66.6304L66.2513 96.0859H60.4071Z" fill="#131A20"/>
<path d="M67.515 105.903H65.0825L67.1675 93.8475H69.5999L67.515 105.903Z" fill="#131A20"/>
<path d="M80.9724 93.8475L83.5628 105.903H81.004L80.4038 103.153H75.0966L73.5487 105.903H70.9583L77.7818 93.8475H80.9724ZM79.93 100.914L79.077 96.1498L76.2971 100.914H79.93Z" fill="#131A20"/>
<path d="M86.1533 105.903H83.7208L85.8374 93.8475H90.9234C91.5417 93.8309 92.159 93.9064 92.7557 94.0714C93.2728 94.2348 93.755 94.4952 94.1772 94.8388C94.5563 95.1792 94.8488 95.607 95.0302 96.0859C95.1744 96.6088 95.1744 97.1618 95.0302 97.6847C94.9417 98.2493 94.7254 98.7855 94.3984 99.2516C94.0586 99.7442 93.6299 100.167 93.1348 100.499C92.6138 100.83 92.0505 101.089 91.4605 101.266C90.8314 101.434 90.1839 101.52 89.5335 101.522H86.8483L86.1533 105.903ZM87.3221 99.2835H89.9757C90.3636 99.3366 90.7567 99.3366 91.1446 99.2835C91.4351 99.2113 91.7124 99.0925 91.9659 98.9318C92.1536 98.8052 92.3147 98.6422 92.4398 98.4521C92.5618 98.2679 92.6476 98.0617 92.6925 97.8446C92.7422 97.6344 92.7422 97.4153 92.6925 97.2051C92.6365 97.017 92.5265 96.8501 92.3766 96.7254C92.1656 96.5702 91.9308 96.4514 91.6816 96.3737C91.315 96.319 90.9425 96.319 90.5759 96.3737H87.8908L87.3221 99.2835Z" fill="#131A20"/>
<path d="M96.5781 105.903H94.1457L96.2622 93.8475H101.348C101.966 93.8353 102.583 93.9107 103.181 94.0713C103.698 94.2348 104.18 94.4951 104.602 94.8388C104.977 95.1767 105.259 95.606 105.423 96.0859C105.557 96.6102 105.557 97.1603 105.423 97.6847C105.321 98.2453 105.106 98.7786 104.792 99.2515C104.452 99.7442 104.023 100.167 103.528 100.499C102.996 100.831 102.422 101.089 101.822 101.266C101.204 101.436 100.567 101.522 99.9267 101.522H97.2415L96.5781 105.903ZM97.7154 99.2835H100.401C100.788 99.3366 101.182 99.3366 101.569 99.2835C101.85 99.2118 102.117 99.0929 102.359 98.9318C102.561 98.8237 102.726 98.6565 102.833 98.4521C102.989 98.2385 103.077 97.9821 103.086 97.7167C103.151 97.5086 103.151 97.2852 103.086 97.0771C103.042 96.8914 102.943 96.7239 102.801 96.5975C102.587 96.4486 102.353 96.3302 102.106 96.2457C101.74 96.1933 101.368 96.1933 101.001 96.2457H98.3156L97.7154 99.2835Z" fill="#131A20"/>
</svg>
