<svg width="39" height="39" viewBox="0 0 39 39" fill="none" xmlns="http://www.w3.org/2000/svg">
<path d="M35.7501 9.02689V29.9731C35.7501 31.005 35.1082 31.9231 34.1413 32.2644L26.9751 35.6281L27.6251 26.8125V12.1875L26.9751 3.37189L34.1413 6.73564C35.1082 7.07689 35.7501 7.99501 35.7501 9.02689Z" fill="#29B6F6"/>
<path d="M7.31265 27.5405L27.6251 12.1875V4.34931C27.6251 3.37594 26.421 2.92094 25.7767 3.65056L3.78477 23.7567C3.05352 24.4311 3.09496 25.5986 3.87171 26.2202C3.87171 26.2202 4.94746 27.2212 5.33665 27.4991C5.93465 27.9256 6.72034 27.9744 7.31265 27.5405Z" fill="#0277BD"/>
<path d="M7.31265 11.4595L27.6251 26.8125V34.6507C27.6251 35.6241 26.421 36.0791 25.7767 35.3494L3.78477 15.2433C3.05352 14.5689 3.09496 13.4014 3.87171 12.7798C3.87171 12.7798 4.94746 11.7788 5.33665 11.5009C5.93465 11.0744 6.72034 11.0256 7.31265 11.4595Z" fill="#0288D1"/>
</svg>
