<svg width="142" height="143" viewBox="0 0 142 143" fill="none" xmlns="http://www.w3.org/2000/svg">
<path d="M20.5379 71.2239H27.4003L30.9832 63.4784L27.572 56.0123L20.5379 71.2239Z" fill="url(#paint0_linear_1075_30356)"/>
<path d="M53.2589 52.6645L49.7047 44.9874L41.1882 63.4101L32.6717 44.9874L29.106 52.6987L41.1939 78.8441L53.2589 52.6645Z" fill="url(#paint1_linear_1075_30356)"/>
<path d="M51.3759 63.4442L54.9759 71.224H61.8383L54.7928 55.9839L51.3759 63.4442Z" fill="url(#paint2_linear_1075_30356)"/>
<path d="M70.7674 70.6584V55.0413H74.3361L79.2694 69.9236L84.2027 55.0413H87.7935V70.6584H85.8987V55.9086L81.0372 70.6584H77.4906L72.6733 56.0025V70.6584H70.7784H70.7674Z" fill="white"/>
<path d="M92.9423 70.8351C91.7656 70.8351 90.7547 70.5423 89.8984 69.9512C89.0421 69.3657 88.6057 68.4873 88.5946 67.3272C88.567 66.1837 88.9758 65.2722 89.821 64.5927C90.6663 63.9187 91.9645 63.5762 93.7047 63.5762L97.522 63.5541V62.6813C97.522 61.8803 97.1961 61.2671 96.5387 60.8417C95.8813 60.4164 95.0637 60.2064 94.0859 60.2064C93.2683 60.2064 92.5501 60.3666 91.9314 60.687C91.3126 61.0074 90.937 61.5157 90.8044 62.2173L88.9537 62.2394C89.0145 61.1069 89.5283 60.223 90.5061 59.5822C91.4784 58.9414 92.6606 58.621 94.0417 58.621C95.5277 58.621 96.7818 58.9745 97.8038 59.6816C98.8203 60.3887 99.334 61.3168 99.334 62.4603V70.6473H97.5276V68.2166C97.3508 68.5425 97.1077 68.8795 96.8039 69.222C96.5 69.5645 95.9918 69.9181 95.2847 70.2827C94.5775 70.6473 93.7986 70.8296 92.9534 70.8296L92.9423 70.8351ZM93.0749 69.2276C94.2185 69.2276 95.246 68.8077 96.152 67.968C97.058 67.1283 97.511 66.134 97.511 64.9904H94.0085C92.7269 65.007 91.8098 65.2446 91.2408 65.7031C90.6773 66.1616 90.4232 66.7195 90.484 67.3769C90.5447 67.9735 90.821 68.4321 91.3071 68.7469C91.7988 69.0673 92.3844 69.2276 93.0694 69.2276H93.0749Z" fill="white"/>
<path d="M103.499 70.6585L99.2844 58.8365H101.317L105.135 69.9679L108.93 58.8365H110.963L106.748 70.6585H103.511H103.499Z" fill="white"/>
<path d="M115.101 70.8351C113.924 70.8351 112.913 70.5423 112.057 69.9512C111.2 69.3657 110.764 68.4873 110.753 67.3272C110.725 66.1837 111.134 65.2722 111.979 64.5927C112.825 63.9187 114.123 63.5762 115.863 63.5762L119.68 63.5541V62.6813C119.68 61.8803 119.354 61.2671 118.697 60.8417C118.04 60.4164 117.222 60.2064 116.244 60.2064C115.427 60.2064 114.708 60.3666 114.09 60.687C113.471 61.0074 113.095 61.5157 112.963 62.2173L111.112 62.2394C111.173 61.1069 111.687 60.223 112.664 59.5822C113.637 58.9414 114.819 58.621 116.2 58.621C117.686 58.621 118.94 58.9745 119.962 59.6816C120.979 60.3887 121.492 61.3168 121.492 62.4603V70.6473H119.686V68.2166C119.509 68.5425 119.266 68.8795 118.962 69.222C118.658 69.5645 118.15 69.9181 117.443 70.2827C116.736 70.6473 115.957 70.8296 115.112 70.8296L115.101 70.8351ZM115.233 69.2276C116.377 69.2276 117.404 68.8077 118.31 67.968C119.216 67.1283 119.669 66.134 119.669 64.9904H116.167C114.885 65.007 113.968 65.2446 113.399 65.7031C112.836 66.1616 112.581 66.7195 112.642 67.3769C112.703 67.9735 112.979 68.4321 113.465 68.7469C113.957 69.0673 114.543 69.2276 115.228 69.2276H115.233Z" fill="white"/>
<path d="M121.885 58.8308V55.7703H120.708V55.1958H123.636V55.7703H122.503V58.8308H121.885Z" fill="white"/>
<path d="M124.116 58.8309V55.1904H125.138L126.155 58.4276L127.177 55.1904H128.205V58.8309H127.608V55.6987L126.619 58.8309H125.685L124.708 55.7152V58.8309H124.111H124.116Z" fill="white"/>
<defs>
<linearGradient id="paint0_linear_1075_30356" x1="27.7992" y1="56.8334" x2="19.6136" y2="63.3222" gradientUnits="userSpaceOnUse">
<stop stop-color="#E07E3A"/>
<stop offset="1" stop-color="#F86060"/>
</linearGradient>
<linearGradient id="paint1_linear_1075_30356" x1="45.8964" y1="46.8149" x2="27.5309" y2="61.94" gradientUnits="userSpaceOnUse">
<stop stop-color="#E07E3A"/>
<stop offset="1" stop-color="#F86060"/>
</linearGradient>
<linearGradient id="paint2_linear_1075_30356" x1="58.649" y1="56.8065" x2="50.4485" y2="63.3056" gradientUnits="userSpaceOnUse">
<stop stop-color="#E07E3A"/>
<stop offset="1" stop-color="#F86060"/>
</linearGradient>
</defs>
</svg>
