<svg width="142" height="143" viewBox="0 0 142 143" fill="none" xmlns="http://www.w3.org/2000/svg">
<path d="M42.6556 71.2224H51.9679L56.8298 60.7118L52.2009 50.5804L42.6556 71.2224Z" fill="url(#paint0_linear_1075_30420)"/>
<path d="M87.0579 46.0374L82.2347 35.6196L70.6779 60.6191L59.121 35.6196L54.2824 46.0838L70.6857 81.563L87.0579 46.0374Z" fill="url(#paint1_linear_1075_30420)"/>
<path d="M84.5026 60.6654L89.3878 71.2225H98.7001L89.1393 50.5417L84.5026 60.6654Z" fill="url(#paint2_linear_1075_30420)"/>
<path d="M35.9431 106.269V87.1985H40.3011L46.3254 105.372L52.3497 87.1985H56.7347V106.269H54.4208V88.2576L48.4842 106.269H44.1532L38.2706 88.3723V106.269H35.9566H35.9431Z" fill="#2D2626"/>
<path d="M63.0222 106.485C61.5852 106.485 60.3507 106.128 59.3051 105.406C58.2594 104.691 57.7265 103.618 57.713 102.202C57.6792 100.805 58.1784 99.6921 59.2106 98.8623C60.2428 98.0393 61.8281 97.6211 63.9531 97.6211L68.6147 97.5941V96.5282C68.6147 95.5501 68.2167 94.8013 67.4139 94.2818C66.6111 93.7624 65.6127 93.506 64.4186 93.506C63.4202 93.506 62.5432 93.7017 61.7876 94.0929C61.0321 94.4842 60.5733 95.1048 60.4114 95.9616L58.1515 95.9886C58.2257 94.6056 58.8531 93.5263 60.0471 92.7437C61.2344 91.9612 62.6781 91.5699 64.3646 91.5699C66.1794 91.5699 67.7107 92.0017 68.9588 92.8652C70.2 93.7287 70.8274 94.862 70.8274 96.2584V106.256H68.6215V103.288C68.4056 103.686 68.1087 104.097 67.7377 104.515C67.3667 104.934 66.746 105.365 65.8825 105.811C65.019 106.256 64.0678 106.479 63.0357 106.479L63.0222 106.485ZM63.1841 104.522C64.5805 104.522 65.8353 104.01 66.9417 102.984C68.048 101.959 68.6012 100.744 68.6012 99.3481H64.3242C62.7591 99.3683 61.6392 99.6584 60.9444 100.218C60.2563 100.778 59.9459 101.46 60.0201 102.262C60.0943 102.991 60.4316 103.551 61.0253 103.935C61.6257 104.327 62.3408 104.522 63.1773 104.522H63.1841Z" fill="#2D2626"/>
<path d="M75.9141 106.27L70.7668 91.8331H73.2494L77.9109 105.426L82.5455 91.8331H85.0281L79.8808 106.27H75.9276H75.9141Z" fill="#2D2626"/>
<path d="M90.0809 106.485C88.644 106.485 87.4094 106.128 86.3638 105.406C85.3181 104.691 84.7852 103.618 84.7717 102.202C84.738 100.805 85.2372 99.6921 86.2693 98.8623C87.3015 98.0393 88.8868 97.6211 91.0118 97.6211L95.6734 97.5941V96.5282C95.6734 95.5501 95.2754 94.8013 94.4726 94.2818C93.6698 93.7624 92.6714 93.506 91.4773 93.506C90.4789 93.506 89.6019 93.7017 88.8463 94.0929C88.0908 94.4842 87.632 95.1048 87.4701 95.9616L85.2102 95.9886C85.2844 94.6056 85.9118 93.5263 87.1058 92.7437C88.2932 91.9612 89.7368 91.5699 91.4234 91.5699C93.2381 91.5699 94.7694 92.0017 96.0175 92.8652C97.2588 93.7287 97.8861 94.862 97.8861 96.2584V106.256H95.6802V103.288C95.4643 103.686 95.1675 104.097 94.7964 104.515C94.4254 104.934 93.8047 105.365 92.9412 105.811C92.0777 106.256 91.1265 106.479 90.0944 106.479L90.0809 106.485ZM90.2428 104.522C91.6392 104.522 92.894 104.01 94.0004 102.984C95.1067 101.959 95.6599 100.744 95.6599 99.3481H91.3829C89.8178 99.3683 88.6979 99.6584 88.0031 100.218C87.315 100.778 87.0046 101.46 87.0789 102.262C87.1531 102.991 87.4904 103.551 88.084 103.935C88.6844 104.327 89.3995 104.522 90.236 104.522H90.2428Z" fill="#2D2626"/>
<path d="M98.3651 91.8259V88.0887H96.9281V87.3871H100.504V88.0887H99.1206V91.8259H98.3651Z" fill="#2D2626"/>
<path d="M101.091 91.8263V87.3807H102.339L103.58 91.3339L104.828 87.3807H106.083V91.8263H105.354V88.0014L104.147 91.8263H103.007L101.812 88.0216V91.8263H101.084H101.091Z" fill="#2D2626"/>
<defs>
<linearGradient id="paint0_linear_1075_30420" x1="52.5091" y1="51.6946" x2="41.4013" y2="60.4999" gradientUnits="userSpaceOnUse">
<stop stop-color="#E07E3A"/>
<stop offset="1" stop-color="#F86060"/>
</linearGradient>
<linearGradient id="paint1_linear_1075_30420" x1="77.0669" y1="38.0995" x2="52.145" y2="58.6241" gradientUnits="userSpaceOnUse">
<stop stop-color="#E07E3A"/>
<stop offset="1" stop-color="#F86060"/>
</linearGradient>
<linearGradient id="paint2_linear_1075_30420" x1="94.3723" y1="51.658" x2="83.2442" y2="60.4773" gradientUnits="userSpaceOnUse">
<stop stop-color="#E07E3A"/>
<stop offset="1" stop-color="#F86060"/>
</linearGradient>
</defs>
</svg>
