<svg width="142" height="143" viewBox="0 0 142 143" fill="none" xmlns="http://www.w3.org/2000/svg">
<g clip-path="url(#clip0_1067_20330)">
<path d="M71.0913 30.8692C71.083 30.9171 71.083 30.9661 71.0913 31.0139V30.7373C71.0821 30.7808 71.0821 30.8257 71.0913 30.8692Z" fill="black"/>
<path d="M81.0483 47.4911C81.0282 47.4739 81.0071 47.4581 80.985 47.4437C81.0145 47.4739 81.0314 47.4911 81.0483 47.4911Z" fill="black"/>
<path d="M53.5991 60.7271C53.5862 64.9339 55.0922 68.9972 57.8278 72.1365C60.5635 75.2759 64.3359 77.2698 68.4203 77.7353C70.5864 78.0146 72.785 77.8541 74.8905 77.2632C76.996 76.6722 78.9671 75.6623 80.691 74.2912C83.925 71.7034 86.1244 67.9958 86.8762 63.8651C87.0557 62.8293 87.1432 61.779 87.1379 60.7271C87.139 59.9538 87.0918 59.1811 86.9967 58.414C86.1388 59.4303 85.1904 60.3627 84.1637 61.1991C83.9193 61.4231 83.6597 61.6291 83.3869 61.8156C81.7174 63.0624 79.8858 64.0643 77.9453 64.7921C77.4976 64.9673 77.0414 65.1191 76.5787 65.247C76.3599 65.3265 76.1366 65.3918 75.9099 65.4426L75.3076 65.5872C72.7903 66.1825 70.1442 66.4078 67.6394 65.6297C65.2216 64.8748 63.1049 63.3444 61.6015 61.2642C60.0982 59.1841 59.2878 56.6644 59.29 54.0769C59.286 51.78 59.9277 49.5305 61.1385 47.5967C61.2035 47.4973 61.2323 47.3776 61.2198 47.2586C61.2073 47.1396 61.1544 47.0289 61.0703 46.9458C60.9861 46.8627 60.8761 46.8126 60.7595 46.8041C60.6429 46.7956 60.5271 46.8293 60.4323 46.8994C58.6163 48.2602 57.0885 49.9836 55.9412 51.9656C54.7939 53.9475 54.0509 56.1469 53.757 58.431C53.657 59.1922 53.6043 59.9591 53.5991 60.7271Z" fill="#0C7356"/>
<path d="M73.6792 65.8891C74.2575 65.8335 74.8309 65.734 75.3948 65.5915C76.2597 65.3858 77.1115 65.126 77.9453 64.8134C81.152 63.5853 84.048 61.6351 86.4193 59.1071C86.6445 58.919 86.8092 58.666 86.8922 58.381C86.9751 58.0959 86.9725 57.7918 86.8845 57.5083C86.7765 57.0831 86.6727 56.6324 86.5522 56.1987C85.872 53.7023 84.6542 51.3936 82.9882 49.4422C82.4039 48.7463 81.7648 48.1006 81.0774 47.5117C81.3515 48.0772 81.6548 48.6258 81.9081 49.2125C82.597 50.7516 82.9472 52.4266 82.9342 54.1194C82.9261 56.3227 82.3333 58.4824 81.219 60.3675C80.1046 62.2526 78.5107 63.7923 76.6077 64.8219C75.666 65.2697 74.6856 65.627 73.6792 65.8891Z" fill="#024130"/>
<path d="M73.3347 65.9698C73.387 65.9776 73.4401 65.9776 73.4924 65.9698C73.5894 65.9489 73.6851 65.9219 73.7789 65.8891L73.3347 65.9698Z" fill="black"/>
<path d="M48.5562 41.0403C48.6227 42.3159 49.1544 43.3322 50.6332 43.5575C51.1358 43.6268 51.6422 43.6637 52.1494 43.6681C53.3665 43.6681 54.6168 43.583 55.7924 43.583H65.0723C67.0537 43.583 69.0476 43.5277 71.029 43.583C72.835 43.6477 74.6179 44.0199 76.3045 44.6843C79.9194 46.0811 82.9524 48.7127 84.8908 52.1342C86.8292 55.5556 87.5542 59.5573 86.9432 63.4627C86.3322 67.3681 84.4228 70.9379 81.5375 73.5687C78.6523 76.1995 74.9682 77.7299 71.1079 77.9014C76.6205 77.909 81.9352 75.7994 86.0016 71.9896C90.0681 68.1798 92.5903 62.9471 93.0698 57.3257C93.1279 56.6879 93.1528 56.0501 93.1528 55.391V55.3697C93.1528 55.1827 93.1528 54.9956 93.1528 54.8127C93.1528 54.6299 93.1528 54.4258 93.1321 54.2302C93.1321 53.8858 93.0947 53.5456 93.0573 53.2054C93.0573 53.1374 93.0573 53.0694 93.0573 53.0013C92.984 52.2747 92.8745 51.5523 92.7291 50.837C92.6917 50.6542 92.6544 50.4714 92.6128 50.2885C92.5713 50.1057 92.5381 49.9654 92.4965 49.8038C92.455 49.6422 92.4217 49.5104 92.3802 49.3786C92.3387 49.2468 92.3013 49.0852 92.2556 48.9534C92.1725 48.6642 92.077 48.3751 91.9814 48.103C91.915 47.9031 91.8485 47.7075 91.7779 47.5077C91.7073 47.3078 91.645 47.1505 91.5743 46.9719C91.5037 46.7933 91.4788 46.721 91.4248 46.5977C91.0107 45.5665 90.5162 44.5712 89.946 43.6213C88.5677 41.307 86.79 39.2683 84.6996 37.6046C84.4919 37.4388 84.2842 37.2772 84.0682 37.1199C83.8522 36.9626 83.6528 36.8095 83.4326 36.6607H83.4119C83.1834 36.5033 82.9466 36.3503 82.714 36.2014C79.9411 34.4436 76.8181 33.3451 73.5754 32.9869C73.2966 32.9618 73.0193 32.9221 72.7446 32.8678C72.4068 32.8046 72.0891 32.6587 71.8183 32.4426C70.7465 31.5582 71.1038 29.5682 71.1038 28.3649V23.7089C71.086 23.0366 70.8186 22.3965 70.3561 21.9188C70.0548 21.6291 69.6903 21.4174 69.2929 21.3013C68.8954 21.1851 68.4766 21.168 68.0714 21.2512C63.8424 21.7181 59.8317 23.4117 56.511 26.1326C53.2353 28.8469 50.7852 32.4627 49.4493 36.5544C49.0672 37.6982 48.4815 39.5308 48.5562 41.0403Z" fill="#4FE084"/>
<path d="M71.0913 30.8692C71.083 30.9171 71.083 30.9661 71.0913 31.0139V30.7373C71.0821 30.7808 71.0821 30.8257 71.0913 30.8692Z" fill="black"/>
<path d="M52.1702 43.6678C58.4551 43.7784 64.74 43.4042 71.029 43.5828C72.835 43.6475 74.6179 44.0196 76.3045 44.6841C79.9194 46.0809 82.9524 48.7124 84.8908 52.1339C86.8292 55.5554 87.5542 59.557 86.9432 63.4625C86.3322 67.3679 84.4228 70.9377 81.5375 73.5684C78.6523 76.1992 74.9682 77.7297 71.1079 77.9012C71.1079 78.2371 76.7739 77.1571 77.2765 77.004C79.2522 76.4193 81.1374 75.5518 82.876 74.4272C86.3222 72.1954 89.1017 69.0355 90.9097 65.2938C94.9639 56.8407 93.265 46.2233 86.7558 39.5008C85.297 37.9968 83.6402 36.7088 81.8334 35.674C81.634 35.5577 81.4346 35.4472 81.2352 35.3423L81.1147 35.2828C78.5112 33.9051 75.663 33.0794 72.7404 32.8548C72.1838 32.8081 71.623 32.7868 71.0539 32.7868C67.258 32.7858 63.526 33.7866 60.2182 35.6926C56.9103 37.5986 54.1385 40.3454 52.1702 43.6678Z" fill="#47CC76"/>
</g>
<path d="M37.6085 106.705C35.9819 106.705 34.631 106.181 33.5007 105.133C32.3703 104.086 31.8465 102.735 31.8465 101.081H33.8315C33.8315 102.183 34.2175 103.093 34.9618 103.782C35.7062 104.472 36.5608 104.802 37.6085 104.802C40.0621 104.802 41.3027 103.148 41.3027 99.84V92.3688H33.5282V90.4941H43.3152V100.061C43.3152 102.101 42.819 103.7 41.8265 104.913C40.834 106.098 39.428 106.705 37.636 106.705H37.6085Z" fill="white"/>
<path d="M49.9323 106.76C48.5263 106.76 47.3133 106.319 46.3208 105.409C45.3007 104.5 44.8045 103.287 44.8045 101.77V94.4369H46.7619V101.191C46.7619 102.349 47.0927 103.259 47.782 103.948C48.4712 104.637 49.2983 104.968 50.2907 104.968C51.3935 104.968 52.3308 104.555 53.0476 103.755C53.7644 102.956 54.1228 101.908 54.1228 100.667V94.4645H56.0802V106.595H54.1228V104.5C53.7093 105.161 53.1579 105.713 52.4411 106.154C51.7243 106.595 50.8973 106.815 49.9323 106.815V106.76Z" fill="white"/>
<path d="M57.8716 106.54V94.4092H59.829V96.3941C60.1874 95.7325 60.6561 95.2087 61.2902 94.7951C61.9242 94.3816 62.6686 94.1886 63.5233 94.1886C64.3779 94.1886 65.205 94.4092 65.8942 94.8778C66.5834 95.3465 67.1348 96.0082 67.4656 96.9179C67.8516 96.0633 68.4305 95.4016 69.1749 94.9054C69.9468 94.4367 70.7739 94.1886 71.6837 94.1886C72.9519 94.1886 74.027 94.6297 74.9093 95.5395C75.7915 96.4217 76.2326 97.6623 76.2326 99.1786V106.54H74.2752V99.7024C74.2752 98.5169 74.027 97.6072 73.5032 96.9455C72.9794 96.2838 72.2626 95.953 71.3529 95.953C70.3328 95.953 69.5333 96.3114 68.9543 97.0282C68.3754 97.745 68.0721 98.6272 68.0446 99.6748V106.512H66.0872V99.6748C66.0872 98.4894 65.8115 97.5796 65.2877 96.9179C64.7639 96.2563 64.0471 95.9254 63.1373 95.9254C62.0621 95.9254 61.235 96.3114 60.6561 97.0833C60.0771 97.8553 59.7739 98.7926 59.7739 99.8954V106.484H57.8165L57.8716 106.54Z" fill="white"/>
<path d="M81.8847 106.732C80.6716 106.732 79.6516 106.429 78.7694 105.822C77.8872 105.216 77.4461 104.334 77.4185 103.121C77.3909 101.935 77.8045 100.998 78.6867 100.309C79.5689 99.6194 80.8922 99.261 82.6842 99.261H86.599V98.3512C86.599 97.5241 86.2682 96.89 85.5789 96.4489C84.8897 96.0078 84.0626 95.7873 83.0701 95.7873C82.2431 95.7873 81.4987 95.9527 80.8646 96.2835C80.2305 96.6143 79.8446 97.1382 79.7067 97.855H77.8045C77.8596 96.7246 78.3834 95.8148 79.4035 95.1532C80.396 94.4915 81.609 94.1607 83.0426 94.1607C84.5589 94.1607 85.8546 94.5191 86.9022 95.2359C87.9499 95.9527 88.4737 96.9176 88.4737 98.0755V106.484H86.6265V103.975C86.4336 104.306 86.1854 104.665 85.8822 104.995C85.5789 105.354 85.0551 105.712 84.3383 106.071C83.6215 106.456 82.822 106.622 81.9398 106.622L81.8847 106.732ZM82.0225 105.078C83.208 105.078 84.2556 104.637 85.193 103.782C86.1303 102.928 86.599 101.908 86.599 100.722H83.015C81.6917 100.722 80.7543 100.97 80.1754 101.466C79.5964 101.935 79.3483 102.514 79.4035 103.176C79.4586 103.782 79.7343 104.251 80.2581 104.582C80.7819 104.913 81.3609 105.078 82.0777 105.078H82.0225Z" fill="white"/>
<path d="M90.1273 106.54V94.4094H92.0847V96.5047C92.4983 95.843 93.0497 95.2916 93.7664 94.8505C94.4832 94.4094 95.3103 94.2164 96.2752 94.2164C97.6812 94.2164 98.8943 94.6851 99.8868 95.5673C100.907 96.4771 101.403 97.6901 101.403 99.2064V106.567H99.4457V99.8129C99.4457 98.5999 99.1148 97.6626 98.4256 97.0285C97.7364 96.3668 96.9093 96.036 95.9168 96.036C94.8141 96.036 93.8767 96.4495 93.1599 97.249C92.4431 98.0761 92.0847 99.0961 92.0847 100.364V106.567H90.1273V106.54Z" fill="white"/>
<path d="M99.6387 111.254V109.572C101.045 109.793 102.037 109.71 102.589 109.324C103.168 108.938 103.443 108.194 103.443 107.146V94.4094H105.346V107.119C105.346 110.592 103.443 111.971 99.6387 111.254ZM105.318 92.0936C105.042 92.3417 104.739 92.4796 104.353 92.4796C103.967 92.4796 103.636 92.3417 103.388 92.0936C103.112 91.8455 102.975 91.5147 102.975 91.1287C102.975 90.7427 103.112 90.4119 103.388 90.1638C103.664 89.8881 103.967 89.7502 104.353 89.7502C104.739 89.7502 105.07 89.8881 105.346 90.1638C105.594 90.4395 105.731 90.7427 105.731 91.1287C105.731 91.5147 105.594 91.8179 105.318 92.0936Z" fill="white"/>
<path d="M109.426 92.0936C109.15 92.3417 108.847 92.4796 108.461 92.4796C108.075 92.4796 107.744 92.3417 107.496 92.0936C107.248 91.8455 107.083 91.5147 107.083 91.1287C107.083 90.7427 107.22 90.4119 107.496 90.1638C107.772 89.8881 108.075 89.7502 108.461 89.7502C108.847 89.7502 109.178 89.8881 109.426 90.1638C109.702 90.4395 109.84 90.7427 109.84 91.1287C109.84 91.5147 109.702 91.8179 109.426 92.0936ZM107.441 106.54V94.4094H109.398V106.54H107.441Z" fill="white"/>
<path d="M109.84 84.2585V83.9785H111.496V84.2585H110.802V86.5847H110.534V84.2585H109.84Z" fill="white"/>
<path d="M111.909 83.9785H112.228L112.979 86.1419H113.005L113.755 83.9785H114.075V86.5847H113.824V84.6046H113.803L113.113 86.5847H112.871L112.181 84.6046H112.159V86.5847H111.909V83.9785Z" fill="white"/>
<defs>
<clipPath id="clip0_1067_20330">
<rect width="44.6049" height="56.799" fill="white" transform="matrix(-1 0 0 1 93.1528 21.1829)"/>
</clipPath>
</defs>
</svg>
