<svg width="142" height="143" viewBox="0 0 142 143" fill="none" xmlns="http://www.w3.org/2000/svg">
<g clip-path="url(#clip0_1067_20354)">
<path d="M71.3025 48.1081C71.2918 48.168 71.2918 48.2291 71.3025 48.289V47.9432C71.2906 47.9976 71.2906 48.0537 71.3025 48.1081Z" fill="black"/>
<path d="M83.8031 68.8853C83.778 68.864 83.7514 68.8443 83.7237 68.8265C83.7608 68.8639 83.782 68.8853 83.8031 68.8853Z" fill="black"/>
<path d="M49.3416 85.4311C49.3253 90.6896 51.2161 95.7688 54.6506 99.6931C58.0851 103.617 62.8213 106.11 67.9492 106.692C70.6686 107.041 73.4289 106.84 76.0723 106.102C78.7156 105.363 81.1902 104.1 83.3546 102.386C87.4147 99.1516 90.1761 94.5171 91.1199 89.3536C91.3452 88.0589 91.4552 86.746 91.4485 85.4311C91.4498 84.4644 91.3906 83.4986 91.2712 82.5396C90.1941 83.81 89.0034 84.9755 87.7145 86.021C87.4076 86.301 87.0817 86.5586 86.7392 86.7917C84.6432 88.3503 82.3437 89.6026 79.9074 90.5124C79.3453 90.7314 78.7726 90.9212 78.1917 91.0811C77.9171 91.1804 77.6366 91.2621 77.352 91.3256L76.5958 91.5063C73.4355 92.2504 70.1134 92.5321 66.9687 91.5594C63.9332 90.6158 61.2757 88.7027 59.3883 86.1025C57.5009 83.5022 56.4835 80.3526 56.4863 77.1181C56.4813 74.247 57.2869 71.4351 58.807 69.0178C58.8886 68.8935 58.9248 68.7439 58.9091 68.5951C58.8934 68.4464 58.827 68.308 58.7214 68.2042C58.6157 68.1003 58.4777 68.0376 58.3313 68.027C58.1849 68.0164 58.0395 68.0586 57.9205 68.1461C55.6405 69.8472 53.7224 72.0015 52.282 74.479C50.8416 76.9565 49.9088 79.7057 49.5398 82.5609C49.4143 83.5124 49.3481 84.471 49.3416 85.4311Z" fill="#0C7356"/>
<path d="M74.5515 91.8837C75.2775 91.8141 75.9974 91.6897 76.7053 91.5116C77.7912 91.2545 78.8606 90.9297 79.9074 90.5389C83.9333 89.0038 87.5692 86.566 90.5463 83.406C90.829 83.1709 91.0358 82.8546 91.1399 82.4983C91.2441 82.1419 91.2408 81.7619 91.1304 81.4075C90.9948 80.8759 90.8644 80.3125 90.7132 79.7704C89.8592 76.6499 88.3302 73.764 86.2386 71.3246C85.505 70.4547 84.7027 69.6476 83.8396 68.9115C84.1838 69.6184 84.5645 70.3041 84.8827 71.0376C85.7475 72.9614 86.1872 75.0552 86.1708 77.1713C86.1607 79.9255 85.4164 82.6251 84.0174 84.9815C82.6184 87.3379 80.6173 89.2625 78.2282 90.5495C77.0458 91.1094 75.815 91.556 74.5515 91.8837Z" fill="#024130"/>
<path d="M74.1189 91.9846C74.1846 91.9943 74.2513 91.9943 74.317 91.9846C74.4388 91.9584 74.5589 91.9247 74.6767 91.8837L74.1189 91.9846Z" fill="black"/>
<path d="M43.0104 60.8221C43.0939 62.4167 43.7614 63.687 45.618 63.9687C46.249 64.0553 46.8848 64.1015 47.5215 64.1069C49.0495 64.1069 50.6193 64.0006 52.0952 64.0006H63.7458C66.2334 64.0006 68.7366 63.9315 71.2243 64.0006C73.4917 64.0814 75.7301 64.5467 77.8475 65.3772C82.3859 67.1233 86.1937 70.4128 88.6273 74.6897C91.0609 78.9666 91.9711 83.9687 91.204 88.8506C90.437 93.7325 88.0397 98.1948 84.4174 101.483C80.795 104.772 76.1698 106.685 71.3233 106.899C78.2441 106.909 84.9166 104.272 90.0219 99.5094C95.1272 94.7471 98.2937 88.2061 98.8957 81.1792C98.9687 80.3819 99 79.5847 99 78.7608V78.7342C99 78.5004 99 78.2665 99 78.0379C99 77.8094 99 77.5543 98.9739 77.3098C98.9739 76.8792 98.927 76.454 98.8801 76.0288C98.8801 75.9438 98.8801 75.8587 98.8801 75.7737C98.7881 74.8653 98.6506 73.9623 98.4681 73.0683C98.4211 72.8397 98.3742 72.6112 98.322 72.3826C98.2699 72.1541 98.2282 71.9787 98.176 71.7767C98.1239 71.5747 98.0821 71.4099 98.03 71.2452C97.9778 71.0804 97.9309 70.8784 97.8735 70.7136C97.7692 70.3522 97.6493 69.9908 97.5293 69.6506C97.4459 69.4008 97.3625 69.1563 97.2738 68.9065C97.1851 68.6567 97.1069 68.46 97.0183 68.2368C96.9296 68.0135 96.8983 67.9232 96.8305 67.769C96.3107 66.48 95.6898 65.2358 94.9739 64.0484C93.2435 61.1554 91.0117 58.6071 88.3872 56.5275C88.1265 56.3202 87.8657 56.1182 87.5945 55.9215C87.3233 55.7249 87.073 55.5335 86.7966 55.3475H86.7705C86.4837 55.1508 86.1864 54.9595 85.8944 54.7735C82.4131 52.5761 78.4923 51.203 74.4211 50.7552C74.0712 50.7238 73.723 50.6741 73.3781 50.6064C72.9541 50.5273 72.5551 50.3449 72.2151 50.0748C70.8696 48.9693 71.3181 46.4818 71.3181 44.9776V39.1575C71.2958 38.3171 70.9601 37.5169 70.3794 36.9198C70.0012 36.5577 69.5435 36.2931 69.0446 36.1479C68.5456 36.0027 68.0198 35.9813 67.5111 36.0853C62.2017 36.669 57.1664 38.786 52.9974 42.1871C48.8848 45.5802 45.8089 50.1 44.1317 55.2146C43.6519 56.6444 42.9166 58.9352 43.0104 60.8221Z" fill="#4FE084"/>
<path d="M71.3025 48.1081C71.2918 48.168 71.2918 48.2291 71.3025 48.289V47.9432C71.2906 47.9976 71.2906 48.0537 71.3025 48.1081Z" fill="black"/>
<path d="M47.5476 64.1066C55.4381 64.2448 63.3286 63.777 71.2242 64.0003C73.4917 64.0811 75.73 64.5464 77.8475 65.3769C82.3859 67.123 86.1937 70.4124 88.6273 74.6894C91.0609 78.9663 91.9711 83.9684 91.204 88.8503C90.437 93.7322 88.0397 98.1944 84.4174 101.483C80.795 104.772 76.1698 106.685 71.3233 106.899C71.3233 107.319 78.4368 105.969 79.0678 105.777C81.5483 105.047 83.915 103.962 86.0978 102.556C90.4244 99.7667 93.9139 95.8167 96.1838 91.1395C101.274 80.573 99.1408 67.301 90.9687 58.8977C89.1373 57.0177 87.0572 55.4076 84.7888 54.1141C84.5385 53.9688 84.2881 53.8306 84.0378 53.6995L83.8866 53.6251C80.618 51.903 77.0421 50.8708 73.3729 50.5901C72.6741 50.5316 71.97 50.5051 71.2555 50.5051C66.4899 50.5038 61.8045 51.7549 57.6516 54.1374C53.4987 56.52 50.0187 59.9535 47.5476 64.1066Z" fill="#47CC76"/>
</g>
<defs>
<clipPath id="clip0_1067_20354">
<rect width="56" height="71" fill="white" transform="matrix(-1 0 0 1 99 36)"/>
</clipPath>
</defs>
</svg>
