<svg width="142" height="143" viewBox="0 0 142 143" fill="none" xmlns="http://www.w3.org/2000/svg">
<g clip-path="url(#clip0_1067_20342)">
<path d="M34.9043 51.4527C34.8994 51.4815 34.8994 51.5109 34.9043 51.5396V51.3735C34.8988 51.3996 34.8988 51.4266 34.9043 51.4527Z" fill="black"/>
<path d="M40.8901 61.4056C40.8778 61.3951 40.8648 61.3854 40.8512 61.3766C40.8694 61.3951 40.8797 61.4056 40.8901 61.4056Z" fill="black"/>
<path d="M24.3887 69.3301C24.3809 71.849 25.2863 74.2819 26.9309 76.1616C28.5754 78.0413 30.8432 79.2352 33.2986 79.5139C34.6008 79.6811 35.9225 79.5851 37.1883 79.2312C38.454 78.8774 39.6389 78.2727 40.6753 77.4517C42.6194 75.9023 43.9416 73.6823 44.3936 71.209C44.5015 70.5889 44.5541 69.96 44.5509 69.3301C44.5516 68.8671 44.5232 68.4045 44.466 67.9451C43.9503 68.5537 43.3801 69.1119 42.7629 69.6127C42.616 69.7468 42.46 69.8702 42.296 69.9819C41.2923 70.7284 40.1912 71.3283 39.0247 71.7641C38.7555 71.869 38.4813 71.9599 38.2031 72.0365C38.0716 72.0841 37.9373 72.1232 37.8011 72.1536L37.439 72.2402C35.9257 72.5966 34.335 72.7315 32.8292 72.2656C31.3757 71.8136 30.1032 70.8972 29.1994 69.6517C28.2957 68.4062 27.8085 66.8975 27.8099 65.3483C27.8075 63.973 28.1932 62.6261 28.9211 61.4682C28.9602 61.4087 28.9775 61.337 28.97 61.2658C28.9625 61.1945 28.9307 61.1282 28.8801 61.0785C28.8295 61.0288 28.7634 60.9987 28.6933 60.9936C28.6232 60.9885 28.5536 61.0087 28.4966 61.0507C27.4049 61.8655 26.4864 62.8974 25.7967 64.0841C25.107 65.2708 24.6603 66.5877 24.4836 67.9553C24.4235 68.4111 24.3918 68.8703 24.3887 69.3301Z" fill="#0C7356"/>
<path d="M36.4601 72.4209C36.8077 72.3876 37.1524 72.328 37.4914 72.2427C38.0114 72.1195 38.5234 71.964 39.0247 71.7768C40.9524 71.0414 42.6934 69.8738 44.1189 68.3601C44.2543 68.2475 44.3533 68.096 44.4032 67.9253C44.4531 67.7546 44.4515 67.5726 44.3986 67.4028C44.3337 67.1482 44.2712 66.8784 44.1988 66.6187C43.7899 65.124 43.0578 63.7416 42.0562 62.5732C41.705 62.1565 41.3208 61.7699 40.9075 61.4173C41.0724 61.7559 41.2547 62.0843 41.407 62.4357C41.8211 63.3572 42.0316 64.3601 42.0238 65.3737C42.019 66.693 41.6626 67.9861 40.9927 69.1148C40.3228 70.2435 39.3646 71.1654 38.2206 71.7819C37.6544 72.05 37.0651 72.264 36.4601 72.4209Z" fill="#024130"/>
<path d="M36.2533 72.4692C36.2847 72.4738 36.3166 72.4738 36.348 72.4692C36.4062 72.4566 36.4637 72.4405 36.52 72.4209L36.2533 72.4692Z" fill="black"/>
<path d="M21.3572 57.5426C21.3971 58.3064 21.7168 58.9149 22.6057 59.0498C22.9079 59.0913 23.2123 59.1134 23.5172 59.116C24.2489 59.116 25.0005 59.0651 25.7072 59.0651H31.2859C32.4771 59.0651 33.6757 59.032 34.8669 59.0651C35.9526 59.1038 37.0244 59.3267 38.0383 59.7245C40.2114 60.5609 42.0347 62.1365 43.2 64.1852C44.3653 66.2338 44.8012 68.6298 44.4339 70.9682C44.0666 73.3066 42.9187 75.444 41.1842 77.0192C39.4497 78.5944 37.235 79.5108 34.9143 79.6135C38.2282 79.618 41.4232 78.3549 43.8678 76.0737C46.3124 73.7926 47.8286 70.6595 48.1169 67.2936C48.1518 66.9117 48.1668 66.5298 48.1668 66.1352V66.1225C48.1668 66.0105 48.1668 65.8984 48.1668 65.789C48.1668 65.6795 48.1668 65.5573 48.1543 65.4402C48.1543 65.234 48.1319 65.0303 48.1094 64.8266C48.1094 64.7859 48.1094 64.7451 48.1094 64.7044C48.0654 64.2693 47.9995 63.8368 47.9121 63.4085C47.8896 63.299 47.8672 63.1896 47.8422 63.0801C47.8172 62.9706 47.7973 62.8866 47.7723 62.7898C47.7473 62.6931 47.7273 62.6142 47.7024 62.5352C47.6774 62.4563 47.6549 62.3596 47.6274 62.2807C47.5775 62.1075 47.5201 61.9344 47.4626 61.7715C47.4227 61.6518 47.3827 61.5347 47.3403 61.415C47.2978 61.2954 47.2604 61.2012 47.2179 61.0942C47.1755 60.9873 47.1605 60.944 47.128 60.8702C46.8791 60.2528 46.5818 59.6568 46.239 59.088C45.4105 57.7023 44.3418 56.4816 43.0851 55.4855C42.9602 55.3862 42.8354 55.2895 42.7055 55.1953C42.5757 55.1011 42.4558 55.0094 42.3234 54.9203H42.311C42.1736 54.8261 42.0313 54.7344 41.8914 54.6453C40.2245 53.5928 38.3471 52.9351 36.3976 52.7206C36.2301 52.7056 36.0634 52.6818 35.8982 52.6493C35.6952 52.6114 35.5041 52.5241 35.3413 52.3947C34.6971 51.8652 34.9118 50.6737 34.9118 49.9531V47.1653C34.9011 46.7628 34.7404 46.3795 34.4623 46.0935C34.2812 45.92 34.0621 45.7933 33.8232 45.7237C33.5843 45.6542 33.3325 45.6439 33.0889 45.6938C30.5466 45.9734 28.1355 46.9874 26.1393 48.6165C24.17 50.2418 22.6971 52.4068 21.8941 54.8567C21.6643 55.5415 21.3122 56.6388 21.3572 57.5426Z" fill="#4FE084"/>
<path d="M34.9043 51.4527C34.8994 51.4815 34.8994 51.5109 34.9043 51.5396V51.3735C34.8988 51.3996 34.8988 51.4266 34.9043 51.4527Z" fill="black"/>
<path d="M23.5297 59.1157C27.3079 59.1819 31.0862 58.9579 34.8669 59.0648C35.9526 59.1035 37.0244 59.3264 38.0383 59.7242C40.2114 60.5606 42.0347 62.1362 43.2 64.1849C44.3653 66.2335 44.8012 68.6295 44.4339 70.9679C44.0666 73.3063 42.9187 75.4438 41.1842 77.019C39.4497 78.5942 37.235 79.5105 34.9143 79.6132C34.9143 79.8143 38.3205 79.1677 38.6226 79.076C39.8104 78.7259 40.9436 78.2065 41.9888 77.5332C44.0606 76.1968 45.7315 74.3048 46.8184 72.0645C49.2556 67.0031 48.2343 60.6459 44.3212 56.6207C43.4442 55.7202 42.4482 54.949 41.362 54.3293C41.2422 54.2598 41.1223 54.1936 41.0024 54.1308L40.93 54.0951C39.3649 53.2703 37.6526 52.7758 35.8957 52.6414C35.5611 52.6134 35.224 52.6006 34.8819 52.6006C32.5999 52.6 30.3564 53.1993 28.3678 54.3405C26.3793 55.4818 24.713 57.1264 23.5297 59.1157Z" fill="#47CC76"/>
</g>
<path d="M116.512 52.801V52.52H118.174V52.801H117.477V55.136H117.209V52.801H116.512Z" fill="#131A20"/>
<path d="M118.589 52.52H118.909L119.663 54.6915H119.689L120.442 52.52H120.763V55.136H120.512V53.1484H120.49L119.797 55.136H119.554L118.862 53.1484H118.84V55.136H118.589V52.52Z" fill="#131A20"/>
<path d="M60.3765 71.0915C59.102 71.0915 58.0435 70.681 57.1579 69.8602C56.2722 69.0393 55.8618 67.9808 55.8618 66.6847H57.4171C57.4171 67.5488 57.7195 68.2616 58.3028 68.8017C58.886 69.3417 59.5557 69.6009 60.3765 69.6009C62.2991 69.6009 63.2711 68.3048 63.2711 65.7127V59.8586H57.1795V58.3897H64.8481V65.8855C64.8481 67.484 64.4592 68.7369 63.6816 69.6873C62.9039 70.6162 61.8022 71.0915 60.3981 71.0915H60.3765Z" fill="#131A20"/>
<path d="M70.0328 71.1349C68.9311 71.1349 67.9807 70.7893 67.203 70.0764C66.4038 69.3636 66.0149 68.4131 66.0149 67.225V61.479H67.5486V66.7714C67.5486 67.6787 67.8079 68.3915 68.3479 68.9316C68.8879 69.4716 69.536 69.7308 70.3136 69.7308C71.1777 69.7308 71.9122 69.4068 72.4738 68.7803C73.0355 68.1539 73.3163 67.333 73.3163 66.361V61.5006H74.85V71.0053H73.3163V69.3636C72.9923 69.882 72.5602 70.3141 71.9986 70.6597C71.4369 71.0053 70.7889 71.1781 70.0328 71.1781V71.1349Z" fill="#131A20"/>
<path d="M76.2536 70.9621V61.4574H77.7873V63.0127C78.0682 62.4942 78.4354 62.0838 78.9322 61.7598C79.4291 61.4358 80.0123 61.2845 80.682 61.2845C81.3516 61.2845 81.9997 61.4574 82.5397 61.8246C83.0797 62.1918 83.5118 62.7103 83.771 63.4231C84.0734 62.7535 84.527 62.235 85.1103 61.8462C85.7151 61.479 86.3632 61.2845 87.076 61.2845C88.0697 61.2845 88.9122 61.6302 89.6034 62.343C90.2947 63.0343 90.6403 64.0063 90.6403 65.1944V70.9621H89.1066V65.6049C89.1066 64.676 88.9122 63.9631 88.5017 63.4447C88.0913 62.9263 87.5297 62.667 86.8168 62.667C86.0176 62.667 85.3911 62.9479 84.9375 63.5095C84.4838 64.0712 84.2462 64.7624 84.2246 65.5833V70.9405H82.6909V65.5833C82.6909 64.6544 82.4749 63.9415 82.0645 63.4231C81.654 62.9047 81.0924 62.6454 80.3795 62.6454C79.5371 62.6454 78.889 62.9479 78.4354 63.5527C77.9818 64.1576 77.7441 64.892 77.7441 65.7561V70.9189H76.2104L76.2536 70.9621Z" fill="#131A20"/>
<path d="M95.069 71.1131C94.1185 71.1131 93.3192 70.8755 92.628 70.4003C91.9367 69.9251 91.5911 69.2338 91.5695 68.2833C91.5479 67.3545 91.8719 66.62 92.5632 66.08C93.2544 65.5399 94.2913 65.2591 95.6954 65.2591H98.7628V64.5463C98.7628 63.8982 98.5036 63.4014 97.9636 63.0558C97.4235 62.7101 96.7755 62.5373 95.9978 62.5373C95.3498 62.5373 94.7665 62.6669 94.2697 62.9261C93.7729 63.1854 93.4704 63.5958 93.3624 64.1574H91.8719C91.9151 63.2718 92.3256 62.5589 93.1248 62.0405C93.9025 61.522 94.853 61.2628 95.9762 61.2628C97.1643 61.2628 98.1796 61.5436 99.0005 62.1053C99.8213 62.6669 100.232 63.423 100.232 64.3302V70.9187H98.7844V68.953C98.6332 69.2122 98.4388 69.493 98.2012 69.7522C97.9636 70.0331 97.5532 70.3139 96.9915 70.5947C96.4299 70.8971 95.8034 71.0267 95.1122 71.0267L95.069 71.1131ZM95.177 69.8171C96.1058 69.8171 96.9267 69.4714 97.6612 68.8018C98.3956 68.1321 98.7628 67.3329 98.7628 66.404H95.9546C94.9178 66.404 94.1833 66.5984 93.7297 66.9872C93.276 67.3545 93.0816 67.8081 93.1248 68.3265C93.168 68.8018 93.384 69.169 93.7945 69.4282C94.2049 69.6874 94.6585 69.8171 95.2202 69.8171H95.177Z" fill="#131A20"/>
<path d="M101.527 70.9621V61.4574H103.061V63.0991C103.385 62.5807 103.817 62.1487 104.379 61.8031C104.941 61.4574 105.589 61.3062 106.345 61.3062C107.446 61.3062 108.397 61.6734 109.174 62.3647C109.974 63.0775 110.363 64.028 110.363 65.2161V70.9837H108.829V65.6913C108.829 64.7409 108.57 64.0064 108.03 63.5096C107.489 62.9911 106.841 62.7319 106.064 62.7319C105.2 62.7319 104.465 63.0559 103.904 63.6824C103.342 64.3304 103.061 65.1297 103.061 66.1234V70.9837H101.527V70.9621Z" fill="#131A20"/>
<path d="M108.98 74.6562V73.3385C110.082 73.5113 110.859 73.4465 111.291 73.1441C111.745 72.8417 111.961 72.2584 111.961 71.4376V61.4576H113.452V71.416C113.452 74.1378 111.961 75.2178 108.98 74.6562ZM113.43 59.6431C113.214 59.8375 112.976 59.9455 112.674 59.9455C112.372 59.9455 112.112 59.8375 111.918 59.6431C111.702 59.4487 111.594 59.1894 111.594 58.887C111.594 58.5846 111.702 58.3254 111.918 58.131C112.134 57.915 112.372 57.8069 112.674 57.8069C112.976 57.8069 113.236 57.915 113.452 58.131C113.646 58.347 113.754 58.5846 113.754 58.887C113.754 59.1894 113.646 59.4271 113.43 59.6431Z" fill="#131A20"/>
<path d="M116.649 59.6431C116.433 59.8375 116.195 59.9455 115.893 59.9455C115.59 59.9455 115.331 59.8375 115.137 59.6431C114.942 59.4487 114.813 59.1894 114.813 58.887C114.813 58.5846 114.921 58.3254 115.137 58.131C115.353 57.915 115.59 57.8069 115.893 57.8069C116.195 57.8069 116.454 57.915 116.649 58.131C116.865 58.347 116.973 58.5846 116.973 58.887C116.973 59.1894 116.865 59.4271 116.649 59.6431ZM115.094 70.9623V61.4576H116.627V70.9623H115.094Z" fill="#131A20"/>
<defs>
<clipPath id="clip0_1067_20342">
<rect width="26.8147" height="34.0088" fill="white" transform="matrix(-1 0 0 1 48.1668 45.6528)"/>
</clipPath>
</defs>
</svg>
